<?xml version="1.0" encoding="UTF-8" standalone="no"?>
<!DOCTYPE svg PUBLIC "-//W3C//DTD SVG 1.1//EN"
 "http://www.w3.org/Graphics/SVG/1.1/DTD/svg11.dtd">
<!-- Generated by graphviz version 2.42.4 (0)
 -->
<!-- Title: EventRewardScoring Pages: 1 -->
<svg width="3294pt" height="613pt"
 viewBox="0.00 0.00 3294.00 613.00" xmlns="http://www.w3.org/2000/svg" xmlns:xlink="http://www.w3.org/1999/xlink">
<g id="graph0" class="graph" transform="scale(1 1) rotate(0) translate(4 609)">
<title>EventRewardScoring</title>
<polygon fill="white" stroke="transparent" points="-4,4 -4,-609 3290,-609 3290,4 -4,4"/>
<text text-anchor="middle" x="1643" y="-585" font-family="Times,serif" font-size="20.00">Ceremony + Scoring + Rewards Data/State Flow</text>
<g id="clust1" class="cluster">
<title>cluster_events</title>
<polygon fill="none" stroke="black" points="8,-110 8,-374 2447.5,-374 2447.5,-110 8,-110"/>
<text text-anchor="middle" x="1227.75" y="-354" font-family="Times,serif" font-size="20.00">Ceremony Events</text>
</g>
<g id="clust2" class="cluster">
<title>cluster_scoring</title>
<polygon fill="none" stroke="black" points="751,-391 751,-567 3001,-567 3001,-391 751,-391"/>
<text text-anchor="middle" x="1876" y="-547" font-family="Times,serif" font-size="20.00">Scoring</text>
</g>
<g id="clust3" class="cluster">
<title>cluster_rewards</title>
<polygon fill="none" stroke="black" points="1115.5,-20 1115.5,-102 3278,-102 3278,-20 1115.5,-20"/>
<text text-anchor="middle" x="2196.75" y="-82" font-family="Times,serif" font-size="20.00">Rewards</text>
</g>
<!-- Dormant -->
<g id="node1" class="node">
<title>Dormant</title>
<path fill="none" stroke="#d49b3a" d="M84,-154C84,-154 28,-154 28,-154 22,-154 16,-148 16,-142 16,-142 16,-130 16,-130 16,-124 22,-118 28,-118 28,-118 84,-118 84,-118 90,-118 96,-124 96,-130 96,-130 96,-142 96,-142 96,-148 90,-154 84,-154"/>
<text text-anchor="middle" x="56" y="-132.3" font-family="Times,serif" font-size="14.00">Dormant</text>
</g>
<!-- CandidateSelection -->
<g id="node2" class="node">
<title>CandidateSelection</title>
<path fill="none" stroke="#d49b3a" d="M476,-197C476,-197 345,-197 345,-197 339,-197 333,-191 333,-185 333,-185 333,-173 333,-173 333,-167 339,-161 345,-161 345,-161 476,-161 476,-161 482,-161 488,-167 488,-173 488,-173 488,-185 488,-185 488,-191 482,-197 476,-197"/>
<text text-anchor="middle" x="410.5" y="-175.3" font-family="Times,serif" font-size="14.00">CandidateSelection</text>
</g>
<!-- Dormant&#45;&gt;CandidateSelection -->
<g id="edge1" class="edge">
<title>Dormant&#45;&gt;CandidateSelection</title>
<path fill="none" stroke="#9c6b1f" d="M96.07,-140.77C150.43,-147.4 250.34,-159.58 322.78,-168.42"/>
<polygon fill="#9c6b1f" stroke="#9c6b1f" points="322.46,-171.91 332.81,-169.64 323.31,-164.96 322.46,-171.91"/>
<text text-anchor="middle" x="214.5" y="-171.8" font-family="Times,serif" font-size="14.00">EVENT_ROLL_REQUESTED</text>
</g>
<!-- Queued -->
<g id="node3" class="node">
<title>Queued</title>
<path fill="none" stroke="#d49b3a" d="M824,-216C824,-216 777,-216 777,-216 771,-216 765,-210 765,-204 765,-204 765,-192 765,-192 765,-186 771,-180 777,-180 777,-180 824,-180 824,-180 830,-180 836,-186 836,-192 836,-192 836,-204 836,-204 836,-210 830,-216 824,-216"/>
<text text-anchor="middle" x="800.5" y="-194.3" font-family="Times,serif" font-size="14.00">Queued</text>
</g>
<!-- CandidateSelection&#45;&gt;Queued -->
<g id="edge2" class="edge">
<title>CandidateSelection&#45;&gt;Queued</title>
<path fill="none" stroke="#9c6b1f" d="M488.16,-182.75C567.65,-186.65 689.26,-192.6 754.47,-195.8"/>
<polygon fill="#9c6b1f" stroke="#9c6b1f" points="754.66,-199.31 764.82,-196.3 755.01,-192.32 754.66,-199.31"/>
<text text-anchor="middle" x="623.5" y="-198.8" font-family="Times,serif" font-size="14.00">EVENT_CANDIDATE_SELECTED</text>
</g>
<!-- Prompt -->
<g id="node4" class="node">
<title>Prompt</title>
<path fill="none" stroke="#d49b3a" d="M1198.5,-228C1198.5,-228 1152.5,-228 1152.5,-228 1146.5,-228 1140.5,-222 1140.5,-216 1140.5,-216 1140.5,-204 1140.5,-204 1140.5,-198 1146.5,-192 1152.5,-192 1152.5,-192 1198.5,-192 1198.5,-192 1204.5,-192 1210.5,-198 1210.5,-204 1210.5,-204 1210.5,-216 1210.5,-216 1210.5,-222 1204.5,-228 1198.5,-228"/>
<text text-anchor="middle" x="1175.5" y="-206.3" font-family="Times,serif" font-size="14.00">Prompt</text>
</g>
<!-- Queued&#45;&gt;Prompt -->
<g id="edge3" class="edge">
<title>Queued&#45;&gt;Prompt</title>
<path fill="none" stroke="#9c6b1f" d="M836.26,-199.12C904.31,-201.31 1055.04,-206.16 1130.16,-208.57"/>
<polygon fill="#9c6b1f" stroke="#9c6b1f" points="1130.13,-212.07 1140.24,-208.9 1130.36,-205.08 1130.13,-212.07"/>
<text text-anchor="middle" x="964" y="-210.8" font-family="Times,serif" font-size="14.00">EVENT_TRIGGERED</text>
</g>
<!-- Tournament -->
<g id="node5" class="node">
<title>Tournament</title>
<path fill="none" stroke="#d49b3a" d="M1648,-336C1648,-336 1569,-336 1569,-336 1563,-336 1557,-330 1557,-324 1557,-324 1557,-312 1557,-312 1557,-306 1563,-300 1569,-300 1569,-300 1648,-300 1648,-300 1654,-300 1660,-306 1660,-312 1660,-312 1660,-324 1660,-324 1660,-330 1654,-336 1648,-336"/>
<text text-anchor="middle" x="1608.5" y="-314.3" font-family="Times,serif" font-size="14.00">Tournament</text>
</g>
<!-- Prompt&#45;&gt;Tournament -->
<g id="edge4" class="edge">
<title>Prompt&#45;&gt;Tournament</title>
<path fill="none" stroke="#9c6b1f" d="M1198.66,-228.04C1219.22,-243.72 1251.33,-265.67 1283,-277 1370.92,-308.46 1479.8,-316.42 1546.42,-318.09"/>
<polygon fill="#9c6b1f" stroke="#9c6b1f" points="1546.67,-321.6 1556.74,-318.31 1546.81,-314.6 1546.67,-321.6"/>
<text text-anchor="middle" x="1411" y="-320.8" font-family="Times,serif" font-size="14.00">ACCEPT_EVENT(kind=tournament)</text>
</g>
<!-- Duel -->
<g id="node6" class="node">
<title>Duel</title>
<path fill="none" stroke="#d49b3a" d="M1623.5,-228C1623.5,-228 1593.5,-228 1593.5,-228 1587.5,-228 1581.5,-222 1581.5,-216 1581.5,-216 1581.5,-204 1581.5,-204 1581.5,-198 1587.5,-192 1593.5,-192 1593.5,-192 1623.5,-192 1623.5,-192 1629.5,-192 1635.5,-198 1635.5,-204 1635.5,-204 1635.5,-216 1635.5,-216 1635.5,-222 1629.5,-228 1623.5,-228"/>
<text text-anchor="middle" x="1608.5" y="-206.3" font-family="Times,serif" font-size="14.00">Duel</text>
</g>
<!-- Prompt&#45;&gt;Duel -->
<g id="edge5" class="edge">
<title>Prompt&#45;&gt;Duel</title>
<path fill="none" stroke="#9c6b1f" d="M1210.68,-210C1290.6,-210 1489.11,-210 1571.14,-210"/>
<polygon fill="#9c6b1f" stroke="#9c6b1f" points="1571.24,-213.5 1581.24,-210 1571.24,-206.5 1571.24,-213.5"/>
<text text-anchor="middle" x="1411" y="-213.8" font-family="Times,serif" font-size="14.00">ACCEPT_EVENT(kind=duel)</text>
</g>
<!-- Wedding -->
<g id="node7" class="node">
<title>Wedding</title>
<path fill="none" stroke="#d49b3a" d="M1636,-282C1636,-282 1581,-282 1581,-282 1575,-282 1569,-276 1569,-270 1569,-270 1569,-258 1569,-258 1569,-252 1575,-246 1581,-246 1581,-246 1636,-246 1636,-246 1642,-246 1648,-252 1648,-258 1648,-258 1648,-270 1648,-270 1648,-276 1642,-282 1636,-282"/>
<text text-anchor="middle" x="1608.5" y="-260.3" font-family="Times,serif" font-size="14.00">Wedding</text>
</g>
<!-- Prompt&#45;&gt;Wedding -->
<g id="edge6" class="edge">
<title>Prompt&#45;&gt;Wedding</title>
<path fill="none" stroke="#9c6b1f" d="M1210.94,-216.77C1231.74,-220.7 1258.83,-225.54 1283,-229 1380.5,-242.94 1495.2,-254.09 1558.8,-259.8"/>
<polygon fill="#9c6b1f" stroke="#9c6b1f" points="1558.66,-263.31 1568.93,-260.71 1559.28,-256.33 1558.66,-263.31"/>
<text text-anchor="middle" x="1411" y="-261.8" font-family="Times,serif" font-size="14.00">ACCEPT_EVENT(kind=wedding)</text>
</g>
<!-- Banquet -->
<g id="node8" class="node">
<title>Banquet</title>
<path fill="none" stroke="#d49b3a" d="M1635,-174C1635,-174 1582,-174 1582,-174 1576,-174 1570,-168 1570,-162 1570,-162 1570,-150 1570,-150 1570,-144 1576,-138 1582,-138 1582,-138 1635,-138 1635,-138 1641,-138 1647,-144 1647,-150 1647,-150 1647,-162 1647,-162 1647,-168 1641,-174 1635,-174"/>
<text text-anchor="middle" x="1608.5" y="-152.3" font-family="Times,serif" font-size="14.00">Banquet</text>
</g>
<!-- Prompt&#45;&gt;Banquet -->
<g id="edge7" class="edge">
<title>Prompt&#45;&gt;Banquet</title>
<path fill="none" stroke="#9c6b1f" d="M1210.94,-203.23C1231.74,-199.3 1258.83,-194.46 1283,-191 1381.03,-176.99 1496.45,-165.79 1559.83,-160.1"/>
<polygon fill="#9c6b1f" stroke="#9c6b1f" points="1560.27,-163.58 1569.92,-159.2 1559.65,-156.6 1560.27,-163.58"/>
<text text-anchor="middle" x="1411" y="-194.8" font-family="Times,serif" font-size="14.00">ACCEPT_EVENT(kind=banquet)</text>
</g>
<!-- Consequences -->
<g id="node9" class="node">
<title>Consequences</title>
<path fill="none" stroke="#d49b3a" d="M2038.5,-186C2038.5,-186 1943.5,-186 1943.5,-186 1937.5,-186 1931.5,-180 1931.5,-174 1931.5,-174 1931.5,-162 1931.5,-162 1931.5,-156 1937.5,-150 1943.5,-150 1943.5,-150 2038.5,-150 2038.5,-150 2044.5,-150 2050.5,-156 2050.5,-162 2050.5,-162 2050.5,-174 2050.5,-174 2050.5,-180 2044.5,-186 2038.5,-186"/>
<text text-anchor="middle" x="1991" y="-164.3" font-family="Times,serif" font-size="14.00">Consequences</text>
</g>
<!-- Tournament&#45;&gt;Consequences -->
<g id="edge8" class="edge">
<title>Tournament&#45;&gt;Consequences</title>
<path fill="none" stroke="#9c6b1f" d="M1648.88,-299.98C1652.88,-297.28 1656.68,-294.29 1660,-291 1671.86,-279.24 1664.17,-267.38 1678,-258 1748.4,-210.26 1787.03,-261.06 1868,-235 1899.41,-224.89 1932.02,-206.5 1955.62,-191.54"/>
<polygon fill="#9c6b1f" stroke="#9c6b1f" points="1957.7,-194.37 1964.2,-186 1953.9,-188.49 1957.7,-194.37"/>
<text text-anchor="middle" x="1773" y="-261.8" font-family="Times,serif" font-size="14.00">ChampionDeclared</text>
</g>
<!-- ApplyRuleModifiers -->
<g id="node14" class="node">
<title>ApplyRuleModifiers</title>
<path fill="none" stroke="#d49b3a" d="M2057.5,-435C2057.5,-435 1924.5,-435 1924.5,-435 1918.5,-435 1912.5,-429 1912.5,-423 1912.5,-423 1912.5,-411 1912.5,-411 1912.5,-405 1918.5,-399 1924.5,-399 1924.5,-399 2057.5,-399 2057.5,-399 2063.5,-399 2069.5,-405 2069.5,-411 2069.5,-411 2069.5,-423 2069.5,-423 2069.5,-429 2063.5,-435 2057.5,-435"/>
<text text-anchor="middle" x="1991" y="-413.3" font-family="Times,serif" font-size="14.00">ApplyRuleModifiers</text>
</g>
<!-- Tournament&#45;&gt;ApplyRuleModifiers -->
<g id="edge30" class="edge">
<title>Tournament&#45;&gt;ApplyRuleModifiers</title>
<path fill="none" stroke="#9c6b1f" stroke-dasharray="5,2" d="M1621.8,-336.2C1633.97,-352.57 1654.2,-375.73 1678,-387 1680.55,-388.21 1810.64,-400.43 1902.02,-408.9"/>
<polygon fill="#9c6b1f" stroke="#9c6b1f" points="1901.84,-412.4 1912.12,-409.83 1902.49,-405.43 1901.84,-412.4"/>
<text text-anchor="middle" x="1773" y="-408.8" font-family="Times,serif" font-size="14.00">joust multiplier / laurels</text>
</g>
<!-- Duel&#45;&gt;Consequences -->
<g id="edge9" class="edge">
<title>Duel&#45;&gt;Consequences</title>
<path fill="none" stroke="#9c6b1f" d="M1635.82,-196.76C1648.28,-191.15 1663.57,-185.17 1678,-182 1760.14,-163.94 1857.29,-162.62 1921.1,-164.39"/>
<polygon fill="#9c6b1f" stroke="#9c6b1f" points="1921.33,-167.9 1931.44,-164.72 1921.55,-160.91 1921.33,-167.9"/>
<text text-anchor="middle" x="1773" y="-185.8" font-family="Times,serif" font-size="14.00">ResolveDuel</text>
</g>
<!-- Duel&#45;&gt;ApplyRuleModifiers -->
<g id="edge31" class="edge">
<title>Duel&#45;&gt;ApplyRuleModifiers</title>
<path fill="none" stroke="#9c6b1f" stroke-dasharray="5,2" d="M1635.59,-218.85C1644.51,-223.07 1653.79,-228.98 1660,-237 1680.73,-263.76 1652.46,-288.79 1678,-311 1710.01,-338.85 1834.37,-304.12 1868,-330 1886.06,-343.89 1869.89,-361.89 1886,-378 1892.46,-384.46 1900.09,-389.86 1908.23,-394.38"/>
<polygon fill="#9c6b1f" stroke="#9c6b1f" points="1906.74,-397.55 1917.24,-398.94 1909.9,-391.3 1906.74,-397.55"/>
<text text-anchor="middle" x="1773" y="-333.8" font-family="Times,serif" font-size="14.00">duel lock / dishonour</text>
</g>
<!-- Wedding&#45;&gt;Consequences -->
<g id="edge10" class="edge">
<title>Wedding&#45;&gt;Consequences</title>
<path fill="none" stroke="#9c6b1f" d="M1646.07,-245.96C1650.88,-243.15 1655.64,-240.14 1660,-237 1668.93,-230.57 1668.04,-224.67 1678,-220 1755.01,-183.87 1784.27,-211.97 1868,-197 1885.38,-193.89 1903.99,-189.84 1921.3,-185.76"/>
<polygon fill="#9c6b1f" stroke="#9c6b1f" points="1922.42,-189.1 1931.33,-183.36 1920.79,-182.29 1922.42,-189.1"/>
<text text-anchor="middle" x="1773" y="-223.8" font-family="Times,serif" font-size="14.00">Expired or Broken</text>
</g>
<!-- Wedding&#45;&gt;ApplyRuleModifiers -->
<g id="edge32" class="edge">
<title>Wedding&#45;&gt;ApplyRuleModifiers</title>
<path fill="none" stroke="#9c6b1f" stroke-dasharray="5,2" d="M1648.07,-280.34C1652.51,-283.4 1656.64,-286.94 1660,-291 1677.19,-311.81 1657.09,-331.93 1678,-349 1710.87,-375.84 1827.51,-355.32 1868,-368 1876.73,-370.73 1877.69,-374.16 1886,-378 1899.3,-384.15 1913.86,-390.08 1927.77,-395.38"/>
<polygon fill="#9c6b1f" stroke="#9c6b1f" points="1926.68,-398.71 1937.27,-398.95 1929.14,-392.16 1926.68,-398.71"/>
<text text-anchor="middle" x="1773" y="-371.8" font-family="Times,serif" font-size="14.00">truce + shared objectives</text>
</g>
<!-- Banquet&#45;&gt;Consequences -->
<g id="edge11" class="edge">
<title>Banquet&#45;&gt;Consequences</title>
<path fill="none" stroke="#9c6b1f" d="M1647.03,-148.22C1657.05,-146.47 1667.9,-144.88 1678,-144 1762.13,-136.69 1783.95,-135.81 1868,-144 1885.42,-145.7 1904.05,-148.73 1921.36,-152.08"/>
<polygon fill="#9c6b1f" stroke="#9c6b1f" points="1920.9,-155.55 1931.39,-154.08 1922.27,-148.69 1920.9,-155.55"/>
<text text-anchor="middle" x="1773" y="-147.8" font-family="Times,serif" font-size="14.00">TreatySigned or Collapsed</text>
</g>
<!-- Banquet&#45;&gt;ApplyRuleModifiers -->
<g id="edge33" class="edge">
<title>Banquet&#45;&gt;ApplyRuleModifiers</title>
<path fill="none" stroke="#9c6b1f" stroke-dasharray="5,2" d="M1647.23,-171.16C1652.09,-174.45 1656.56,-178.37 1660,-183 1684.32,-215.75 1647.78,-245.6 1678,-273 1709.43,-301.5 1836.44,-263.64 1868,-292 1897.05,-318.1 1860.57,-348.36 1886,-378 1891.34,-384.23 1897.78,-389.46 1904.8,-393.86"/>
<polygon fill="#9c6b1f" stroke="#9c6b1f" points="1903.54,-397.16 1913.97,-399 1906.96,-391.05 1903.54,-397.16"/>
<text text-anchor="middle" x="1773" y="-295.8" font-family="Times,serif" font-size="14.00">treaty multipliers</text>
</g>
<!-- Cooldown -->
<g id="node10" class="node">
<title>Cooldown</title>
<path fill="none" stroke="#d49b3a" d="M2427.5,-170C2427.5,-170 2365.5,-170 2365.5,-170 2359.5,-170 2353.5,-164 2353.5,-158 2353.5,-158 2353.5,-146 2353.5,-146 2353.5,-140 2359.5,-134 2365.5,-134 2365.5,-134 2427.5,-134 2427.5,-134 2433.5,-134 2439.5,-140 2439.5,-146 2439.5,-146 2439.5,-158 2439.5,-158 2439.5,-164 2433.5,-170 2427.5,-170"/>
<text text-anchor="middle" x="2396.5" y="-148.3" font-family="Times,serif" font-size="14.00">Cooldown</text>
</g>
<!-- Consequences&#45;&gt;Cooldown -->
<g id="edge12" class="edge">
<title>Consequences&#45;&gt;Cooldown</title>
<path fill="none" stroke="#9c6b1f" d="M2050.67,-165.67C2129.37,-162.55 2267.92,-157.06 2343.22,-154.07"/>
<polygon fill="#9c6b1f" stroke="#9c6b1f" points="2343.56,-157.56 2353.41,-153.67 2343.28,-150.57 2343.56,-157.56"/>
</g>
<!-- ApplyEventRewards -->
<g id="node22" class="node">
<title>ApplyEventRewards</title>
<path fill="none" stroke="#d49b3a" d="M2465,-64C2465,-64 2328,-64 2328,-64 2322,-64 2316,-58 2316,-52 2316,-52 2316,-40 2316,-40 2316,-34 2322,-28 2328,-28 2328,-28 2465,-28 2465,-28 2471,-28 2477,-34 2477,-40 2477,-40 2477,-52 2477,-52 2477,-58 2471,-64 2465,-64"/>
<text text-anchor="middle" x="2396.5" y="-42.3" font-family="Times,serif" font-size="14.00">ApplyEventRewards</text>
</g>
<!-- Consequences&#45;&gt;ApplyEventRewards -->
<g id="edge35" class="edge">
<title>Consequences&#45;&gt;ApplyEventRewards</title>
<path fill="none" stroke="#9c6b1f" stroke-dasharray="5,2" d="M2050.67,-150.26C2123.72,-128.17 2248.33,-90.5 2326.06,-67"/>
<polygon fill="#9c6b1f" stroke="#9c6b1f" points="2327.21,-70.3 2335.77,-64.06 2325.18,-63.6 2327.21,-70.3"/>
<text text-anchor="middle" x="2206" y="-132.8" font-family="Times,serif" font-size="14.00">event_rewards / penalties</text>
</g>
<!-- Cooldown&#45;&gt;Dormant -->
<g id="edge13" class="edge">
<title>Cooldown&#45;&gt;Dormant</title>
<path fill="none" stroke="#9c6b1f" d="M2353.48,-146.29C2280.22,-136.84 2124.31,-119 1992,-119 409.5,-119 409.5,-119 409.5,-119 301.1,-119 174.18,-127.12 106.1,-132.14"/>
<polygon fill="#9c6b1f" stroke="#9c6b1f" points="105.8,-128.65 96.09,-132.88 106.32,-135.63 105.8,-128.65"/>
</g>
<!-- Listening -->
<g id="node11" class="node">
<title>Listening</title>
<path fill="none" stroke="#d49b3a" d="M830,-482C830,-482 771,-482 771,-482 765,-482 759,-476 759,-470 759,-470 759,-458 759,-458 759,-452 765,-446 771,-446 771,-446 830,-446 830,-446 836,-446 842,-452 842,-458 842,-458 842,-470 842,-470 842,-476 836,-482 830,-482"/>
<text text-anchor="middle" x="800.5" y="-460.3" font-family="Times,serif" font-size="14.00">Listening</text>
</g>
<!-- BatchGameplayEvents -->
<g id="node12" class="node">
<title>BatchGameplayEvents</title>
<path fill="none" stroke="#d49b3a" d="M1253,-435C1253,-435 1098,-435 1098,-435 1092,-435 1086,-429 1086,-423 1086,-423 1086,-411 1086,-411 1086,-405 1092,-399 1098,-399 1098,-399 1253,-399 1253,-399 1259,-399 1265,-405 1265,-411 1265,-411 1265,-423 1265,-423 1265,-429 1259,-435 1253,-435"/>
<text text-anchor="middle" x="1175.5" y="-413.3" font-family="Times,serif" font-size="14.00">BatchGameplayEvents</text>
</g>
<!-- Listening&#45;&gt;BatchGameplayEvents -->
<g id="edge14" class="edge">
<title>Listening&#45;&gt;BatchGameplayEvents</title>
<path fill="none" stroke="#9c6b1f" d="M830.88,-445.9C839.91,-441.18 850.08,-436.68 860,-434 930.38,-414.98 1012.76,-411.16 1075.54,-411.87"/>
<polygon fill="#9c6b1f" stroke="#9c6b1f" points="1075.79,-415.37 1085.84,-412.03 1075.9,-408.37 1075.79,-415.37"/>
<text text-anchor="middle" x="964" y="-437.8" font-family="Times,serif" font-size="14.00">SCORE_EVENT_ACCEPTED</text>
</g>
<!-- FinalSnapshot -->
<g id="node18" class="node">
<title>FinalSnapshot</title>
<path fill="none" stroke="#d49b3a" d="M1223,-529C1223,-529 1128,-529 1128,-529 1122,-529 1116,-523 1116,-517 1116,-517 1116,-505 1116,-505 1116,-499 1122,-493 1128,-493 1128,-493 1223,-493 1223,-493 1229,-493 1235,-499 1235,-505 1235,-505 1235,-517 1235,-517 1235,-523 1229,-529 1223,-529"/>
<text text-anchor="middle" x="1175.5" y="-507.3" font-family="Times,serif" font-size="14.00">FinalSnapshot</text>
</g>
<!-- Listening&#45;&gt;FinalSnapshot -->
<g id="edge22" class="edge">
<title>Listening&#45;&gt;FinalSnapshot</title>
<path fill="none" stroke="#9c6b1f" d="M842.24,-475.28C848.17,-476.67 854.22,-477.97 860,-479 943.81,-493.92 1041.52,-502.51 1105.52,-506.96"/>
<polygon fill="#9c6b1f" stroke="#9c6b1f" points="1105.67,-510.48 1115.88,-507.67 1106.14,-503.49 1105.67,-510.48"/>
<text text-anchor="middle" x="964" y="-506.8" font-family="Times,serif" font-size="14.00">MATCH_ENDED</text>
</g>
<!-- Classify -->
<g id="node13" class="node">
<title>Classify</title>
<path fill="none" stroke="#d49b3a" d="M1633,-435C1633,-435 1584,-435 1584,-435 1578,-435 1572,-429 1572,-423 1572,-423 1572,-411 1572,-411 1572,-405 1578,-399 1584,-399 1584,-399 1633,-399 1633,-399 1639,-399 1645,-405 1645,-411 1645,-411 1645,-423 1645,-423 1645,-429 1639,-435 1633,-435"/>
<text text-anchor="middle" x="1608.5" y="-413.3" font-family="Times,serif" font-size="14.00">Classify</text>
</g>
<!-- BatchGameplayEvents&#45;&gt;Classify -->
<g id="edge15" class="edge">
<title>BatchGameplayEvents&#45;&gt;Classify</title>
<path fill="none" stroke="#9c6b1f" d="M1265.02,-417C1355.12,-417 1491.25,-417 1561.67,-417"/>
<polygon fill="#9c6b1f" stroke="#9c6b1f" points="1561.99,-420.5 1571.99,-417 1561.99,-413.5 1561.99,-420.5"/>
</g>
<!-- Classify&#45;&gt;ApplyRuleModifiers -->
<g id="edge16" class="edge">
<title>Classify&#45;&gt;ApplyRuleModifiers</title>
<path fill="none" stroke="#9c6b1f" d="M1645.34,-421.98C1655.84,-423.23 1667.36,-424.38 1678,-425 1762.3,-429.91 1783.6,-427.76 1868,-425 1879.08,-424.64 1890.71,-424.09 1902.21,-423.45"/>
<polygon fill="#9c6b1f" stroke="#9c6b1f" points="1902.48,-426.94 1912.26,-422.86 1902.08,-419.95 1902.48,-426.94"/>
</g>
<!-- UpdateLedgers -->
<g id="node15" class="node">
<title>UpdateLedgers</title>
<path fill="none" stroke="#d49b3a" d="M2448,-435C2448,-435 2345,-435 2345,-435 2339,-435 2333,-429 2333,-423 2333,-423 2333,-411 2333,-411 2333,-405 2339,-399 2345,-399 2345,-399 2448,-399 2448,-399 2454,-399 2460,-405 2460,-411 2460,-411 2460,-423 2460,-423 2460,-429 2454,-435 2448,-435"/>
<text text-anchor="middle" x="2396.5" y="-413.3" font-family="Times,serif" font-size="14.00">UpdateLedgers</text>
</g>
<!-- ApplyRuleModifiers&#45;&gt;UpdateLedgers -->
<g id="edge17" class="edge">
<title>ApplyRuleModifiers&#45;&gt;UpdateLedgers</title>
<path fill="none" stroke="#9c6b1f" d="M2069.8,-417C2142.81,-417 2251.19,-417 2322.57,-417"/>
<polygon fill="#9c6b1f" stroke="#9c6b1f" points="2322.83,-420.5 2332.83,-417 2322.83,-413.5 2322.83,-420.5"/>
</g>
<!-- CheckVictory -->
<g id="node16" class="node">
<title>CheckVictory</title>
<path fill="none" stroke="#d49b3a" d="M2649,-456C2649,-456 2562,-456 2562,-456 2556,-456 2550,-450 2550,-444 2550,-444 2550,-432 2550,-432 2550,-426 2556,-420 2562,-420 2562,-420 2649,-420 2649,-420 2655,-420 2661,-426 2661,-432 2661,-432 2661,-444 2661,-444 2661,-450 2655,-456 2649,-456"/>
<text text-anchor="middle" x="2605.5" y="-434.3" font-family="Times,serif" font-size="14.00">CheckVictory</text>
</g>
<!-- UpdateLedgers&#45;&gt;CheckVictory -->
<g id="edge18" class="edge">
<title>UpdateLedgers&#45;&gt;CheckVictory</title>
<path fill="none" stroke="#9c6b1f" d="M2460.17,-423.36C2485.27,-425.9 2514.19,-428.84 2539.51,-431.41"/>
<polygon fill="#9c6b1f" stroke="#9c6b1f" points="2539.46,-434.92 2549.76,-432.45 2540.16,-427.95 2539.46,-434.92"/>
</g>
<!-- CheckVictory&#45;&gt;Listening -->
<g id="edge21" class="edge">
<title>CheckVictory&#45;&gt;Listening</title>
<path fill="none" stroke="#9c6b1f" d="M2549.67,-444.55C2508,-448.97 2449.22,-454 2397.5,-454 1174.5,-454 1174.5,-454 1174.5,-454 1059.19,-454 923.91,-458.83 852.17,-461.78"/>
<polygon fill="#9c6b1f" stroke="#9c6b1f" points="851.9,-458.29 842.06,-462.2 852.2,-465.28 851.9,-458.29"/>
<text text-anchor="middle" x="1773" y="-457.8" font-family="Times,serif" font-size="14.00">no victory</text>
</g>
<!-- PublishVictory -->
<g id="node17" class="node">
<title>PublishVictory</title>
<path fill="none" stroke="#d49b3a" d="M2981,-474C2981,-474 2884,-474 2884,-474 2878,-474 2872,-468 2872,-462 2872,-462 2872,-450 2872,-450 2872,-444 2878,-438 2884,-438 2884,-438 2981,-438 2981,-438 2987,-438 2993,-444 2993,-450 2993,-450 2993,-462 2993,-462 2993,-468 2987,-474 2981,-474"/>
<text text-anchor="middle" x="2932.5" y="-452.3" font-family="Times,serif" font-size="14.00">PublishVictory</text>
</g>
<!-- CheckVictory&#45;&gt;PublishVictory -->
<g id="edge19" class="edge">
<title>CheckVictory&#45;&gt;PublishVictory</title>
<path fill="none" stroke="#9c6b1f" d="M2661.26,-441.03C2716.42,-444.09 2801.7,-448.81 2861.68,-452.13"/>
<polygon fill="#9c6b1f" stroke="#9c6b1f" points="2861.64,-455.64 2871.82,-452.69 2862.03,-448.65 2861.64,-455.64"/>
<text text-anchor="middle" x="2780.5" y="-454.8" font-family="Times,serif" font-size="14.00">victory guard true</text>
</g>
<!-- PublishVictory&#45;&gt;Listening -->
<g id="edge20" class="edge">
<title>PublishVictory&#45;&gt;Listening</title>
<path fill="none" stroke="#9c6b1f" d="M2871.84,-466.87C2863.2,-468.13 2854.39,-469.23 2846,-470 2739.98,-479.74 2712.97,-475 2606.5,-475 1990,-475 1990,-475 1990,-475 1549.33,-475 1016.78,-467.34 852.33,-464.81"/>
<polygon fill="#9c6b1f" stroke="#9c6b1f" points="852.08,-461.3 842.03,-464.65 851.98,-468.3 852.08,-461.3"/>
</g>
<!-- LedgerOpen -->
<g id="node19" class="node">
<title>LedgerOpen</title>
<path fill="none" stroke="#d49b3a" d="M1215.5,-64C1215.5,-64 1135.5,-64 1135.5,-64 1129.5,-64 1123.5,-58 1123.5,-52 1123.5,-52 1123.5,-40 1123.5,-40 1123.5,-34 1129.5,-28 1135.5,-28 1135.5,-28 1215.5,-28 1215.5,-28 1221.5,-28 1227.5,-34 1227.5,-40 1227.5,-40 1227.5,-52 1227.5,-52 1227.5,-58 1221.5,-64 1215.5,-64"/>
<text text-anchor="middle" x="1175.5" y="-42.3" font-family="Times,serif" font-size="14.00">LedgerOpen</text>
</g>
<!-- FinalSnapshot&#45;&gt;LedgerOpen -->
<g id="edge34" class="edge">
<title>FinalSnapshot&#45;&gt;LedgerOpen</title>
<path fill="none" stroke="#9c6b1f" d="M1115.8,-506.49C1049.2,-497.91 944.34,-472.97 895,-400.5 805.7,-269.34 1032.43,-124.23 1131.69,-69.02"/>
<polygon fill="#9c6b1f" stroke="#9c6b1f" points="1133.53,-72 1140.6,-64.11 1130.15,-65.87 1133.53,-72"/>
<text text-anchor="middle" x="964" y="-389.3" font-family="Times,serif" font-size="14.00">REWARD_LEDGER_OPENED</text>
</g>
<!-- TallyBase -->
<g id="node20" class="node">
<title>TallyBase</title>
<path fill="none" stroke="#d49b3a" d="M1639,-64C1639,-64 1578,-64 1578,-64 1572,-64 1566,-58 1566,-52 1566,-52 1566,-40 1566,-40 1566,-34 1572,-28 1578,-28 1578,-28 1639,-28 1639,-28 1645,-28 1651,-34 1651,-40 1651,-40 1651,-52 1651,-52 1651,-58 1645,-64 1639,-64"/>
<text text-anchor="middle" x="1608.5" y="-42.3" font-family="Times,serif" font-size="14.00">TallyBase</text>
</g>
<!-- LedgerOpen&#45;&gt;TallyBase -->
<g id="edge23" class="edge">
<title>LedgerOpen&#45;&gt;TallyBase</title>
<path fill="none" stroke="#9c6b1f" d="M1227.63,-46C1310.28,-46 1472.34,-46 1555.53,-46"/>
<polygon fill="#9c6b1f" stroke="#9c6b1f" points="1555.75,-49.5 1565.75,-46 1555.75,-42.5 1555.75,-49.5"/>
</g>
<!-- ApplyPerformanceRewards -->
<g id="node21" class="node">
<title>ApplyPerformanceRewards</title>
<path fill="none" stroke="#d49b3a" d="M2084,-64C2084,-64 1898,-64 1898,-64 1892,-64 1886,-58 1886,-52 1886,-52 1886,-40 1886,-40 1886,-34 1892,-28 1898,-28 1898,-28 2084,-28 2084,-28 2090,-28 2096,-34 2096,-40 2096,-40 2096,-52 2096,-52 2096,-58 2090,-64 2084,-64"/>
<text text-anchor="middle" x="1991" y="-42.3" font-family="Times,serif" font-size="14.00">ApplyPerformanceRewards</text>
</g>
<!-- TallyBase&#45;&gt;ApplyPerformanceRewards -->
<g id="edge24" class="edge">
<title>TallyBase&#45;&gt;ApplyPerformanceRewards</title>
<path fill="none" stroke="#9c6b1f" d="M1651.31,-46C1704.89,-46 1799.9,-46 1875.68,-46"/>
<polygon fill="#9c6b1f" stroke="#9c6b1f" points="1875.77,-49.5 1885.77,-46 1875.77,-42.5 1875.77,-49.5"/>
</g>
<!-- ApplyPerformanceRewards&#45;&gt;ApplyEventRewards -->
<g id="edge25" class="edge">
<title>ApplyPerformanceRewards&#45;&gt;ApplyEventRewards</title>
<path fill="none" stroke="#9c6b1f" d="M2096.17,-46C2161.09,-46 2243.77,-46 2305.77,-46"/>
<polygon fill="#9c6b1f" stroke="#9c6b1f" points="2305.93,-49.5 2315.93,-46 2305.93,-42.5 2305.93,-49.5"/>
</g>
<!-- ApplyWarfrontRewards -->
<g id="node23" class="node">
<title>ApplyWarfrontRewards</title>
<path fill="none" stroke="#d49b3a" d="M2685,-64C2685,-64 2526,-64 2526,-64 2520,-64 2514,-58 2514,-52 2514,-52 2514,-40 2514,-40 2514,-34 2520,-28 2526,-28 2526,-28 2685,-28 2685,-28 2691,-28 2697,-34 2697,-40 2697,-40 2697,-52 2697,-52 2697,-58 2691,-64 2685,-64"/>
<text text-anchor="middle" x="2605.5" y="-42.3" font-family="Times,serif" font-size="14.00">ApplyWarfrontRewards</text>
</g>
<!-- ApplyEventRewards&#45;&gt;ApplyWarfrontRewards -->
<g id="edge26" class="edge">
<title>ApplyEventRewards&#45;&gt;ApplyWarfrontRewards</title>
<path fill="none" stroke="#9c6b1f" d="M2477.24,-46C2485.92,-46 2494.85,-46 2503.75,-46"/>
<polygon fill="#9c6b1f" stroke="#9c6b1f" points="2503.77,-49.5 2513.77,-46 2503.77,-42.5 2503.77,-49.5"/>
</g>
<!-- ResolvePenalties -->
<g id="node24" class="node">
<title>ResolvePenalties</title>
<path fill="none" stroke="#d49b3a" d="M2989,-64C2989,-64 2876,-64 2876,-64 2870,-64 2864,-58 2864,-52 2864,-52 2864,-40 2864,-40 2864,-34 2870,-28 2876,-28 2876,-28 2989,-28 2989,-28 2995,-28 3001,-34 3001,-40 3001,-40 3001,-52 3001,-52 3001,-58 2995,-64 2989,-64"/>
<text text-anchor="middle" x="2932.5" y="-42.3" font-family="Times,serif" font-size="14.00">ResolvePenalties</text>
</g>
<!-- ApplyWarfrontRewards&#45;&gt;ResolvePenalties -->
<g id="edge27" class="edge">
<title>ApplyWarfrontRewards&#45;&gt;ResolvePenalties</title>
<path fill="none" stroke="#9c6b1f" d="M2697.03,-46C2746.29,-46 2806.6,-46 2853.72,-46"/>
<polygon fill="#9c6b1f" stroke="#9c6b1f" points="2853.87,-49.5 2863.87,-46 2853.87,-42.5 2853.87,-49.5"/>
</g>
<!-- Commit -->
<g id="node25" class="node">
<title>Commit</title>
<path fill="none" stroke="#d49b3a" d="M3099,-64C3099,-64 3050,-64 3050,-64 3044,-64 3038,-58 3038,-52 3038,-52 3038,-40 3038,-40 3038,-34 3044,-28 3050,-28 3050,-28 3099,-28 3099,-28 3105,-28 3111,-34 3111,-40 3111,-40 3111,-52 3111,-52 3111,-58 3105,-64 3099,-64"/>
<text text-anchor="middle" x="3074.5" y="-42.3" font-family="Times,serif" font-size="14.00">Commit</text>
</g>
<!-- ResolvePenalties&#45;&gt;Commit -->
<g id="edge28" class="edge">
<title>ResolvePenalties&#45;&gt;Commit</title>
<path fill="none" stroke="#9c6b1f" d="M3001.04,-46C3010.09,-46 3019.19,-46 3027.74,-46"/>
<polygon fill="#9c6b1f" stroke="#9c6b1f" points="3027.86,-49.5 3037.86,-46 3027.86,-42.5 3027.86,-49.5"/>
</g>
<!-- Commit&#45;&gt;Dormant -->
<g id="edge36" class="edge">
<title>Commit&#45;&gt;Dormant</title>
<path fill="none" stroke="#9c6b1f" d="M3039.14,-27.95C3011.41,-15.06 2970.98,0 2933.5,0 409.5,0 409.5,0 409.5,0 286.02,0 153.54,-73.53 92.06,-112.46"/>
<polygon fill="#9c6b1f" stroke="#9c6b1f" points="90.04,-109.6 83.51,-117.94 93.82,-115.49 90.04,-109.6"/>
<text text-anchor="middle" x="1773" y="-3.8" font-family="Times,serif" font-size="14.00">REWARDS_COMMITTED</text>
</g>
<!-- ReadyToSpend -->
<g id="node26" class="node">
<title>ReadyToSpend</title>
<path fill="none" stroke="#d49b3a" d="M3258,-64C3258,-64 3160,-64 3160,-64 3154,-64 3148,-58 3148,-52 3148,-52 3148,-40 3148,-40 3148,-34 3154,-28 3160,-28 3160,-28 3258,-28 3258,-28 3264,-28 3270,-34 3270,-40 3270,-40 3270,-52 3270,-52 3270,-58 3264,-64 3258,-64"/>
<text text-anchor="middle" x="3209" y="-42.3" font-family="Times,serif" font-size="14.00">ReadyToSpend</text>
</g>
<!-- Commit&#45;&gt;ReadyToSpend -->
<g id="edge29" class="edge">
<title>Commit&#45;&gt;ReadyToSpend</title>
<path fill="none" stroke="#9c6b1f" d="M3111.01,-46C3119.34,-46 3128.5,-46 3137.77,-46"/>
<polygon fill="#9c6b1f" stroke="#9c6b1f" points="3137.84,-49.5 3147.84,-46 3137.84,-42.5 3137.84,-49.5"/>
</g>
</g>
</svg>
