<?xml version="1.0" encoding="UTF-8" standalone="no"?>
<!DOCTYPE svg PUBLIC "-//W3C//DTD SVG 1.1//EN"
 "http://www.w3.org/Graphics/SVG/1.1/DTD/svg11.dtd">
<!-- Generated by graphviz version 2.42.4 (0)
 -->
<!-- Title: SkyjoustOverview Pages: 1 -->
<svg width="4005pt" height="324pt"
 viewBox="0.00 0.00 4004.78 324.00" xmlns="http://www.w3.org/2000/svg" xmlns:xlink="http://www.w3.org/1999/xlink">
<g id="graph0" class="graph" transform="scale(1 1) rotate(0) translate(4 320)">
<title>SkyjoustOverview</title>
<polygon fill="white" stroke="transparent" points="-4,4 -4,-320 4000.78,-320 4000.78,4 -4,4"/>
<text text-anchor="middle" x="1998.39" y="-296" font-family="Times,serif" font-size="20.00">Project Skyjoust Engine State Graph Overview</text>
<!-- AppRuntime -->
<g id="node1" class="node">
<title>AppRuntime</title>
<path fill="#101820" stroke="#d49b3a" d="M187,-123C187,-123 12,-123 12,-123 6,-123 0,-117 0,-111 0,-111 0,-97 0,-97 0,-91 6,-85 12,-85 12,-85 187,-85 187,-85 193,-85 199,-91 199,-97 199,-97 199,-111 199,-111 199,-117 193,-123 187,-123"/>
<text text-anchor="middle" x="99.5" y="-107.8" font-family="Times,serif" font-size="14.00" fill="#f6d77a">App Runtime</text>
<text text-anchor="middle" x="99.5" y="-92.8" font-family="Times,serif" font-size="14.00" fill="#f6d77a">Boot/Menu/Setup/Results</text>
</g>
<!-- Warfront -->
<g id="node2" class="node">
<title>Warfront</title>
<path fill="#101820" stroke="#d49b3a" d="M618.5,-91C618.5,-91 395.5,-91 395.5,-91 389.5,-91 383.5,-85 383.5,-79 383.5,-79 383.5,-65 383.5,-65 383.5,-59 389.5,-53 395.5,-53 395.5,-53 618.5,-53 618.5,-53 624.5,-53 630.5,-59 630.5,-65 630.5,-65 630.5,-79 630.5,-79 630.5,-85 624.5,-91 618.5,-91"/>
<text text-anchor="middle" x="507" y="-75.8" font-family="Times,serif" font-size="14.00" fill="#f6d77a">Warfront</text>
<text text-anchor="middle" x="507" y="-60.8" font-family="Times,serif" font-size="14.00" fill="#f6d77a">Territory + Supply + Diplomacy</text>
</g>
<!-- AppRuntime&#45;&gt;Warfront -->
<g id="edge1" class="edge">
<title>AppRuntime&#45;&gt;Warfront</title>
<path fill="none" stroke="#d49b3a" d="M199.18,-96.21C251.48,-92.09 316.46,-86.96 373.14,-82.48"/>
<polygon fill="#d49b3a" stroke="#d49b3a" points="373.56,-85.96 383.25,-81.69 373.01,-78.98 373.56,-85.96"/>
<text text-anchor="middle" x="287.5" y="-98.8" font-family="Times,serif" font-size="14.00" fill="#f6d77a">START_WARFRONT</text>
</g>
<!-- Match -->
<g id="node3" class="node">
<title>Match</title>
<path fill="#101820" stroke="#d49b3a" d="M1109,-152C1109,-152 860,-152 860,-152 854,-152 848,-146 848,-140 848,-140 848,-126 848,-126 848,-120 854,-114 860,-114 860,-114 1109,-114 1109,-114 1115,-114 1121,-120 1121,-126 1121,-126 1121,-140 1121,-140 1121,-146 1115,-152 1109,-152"/>
<text text-anchor="middle" x="984.5" y="-136.8" font-family="Times,serif" font-size="14.00" fill="#f6d77a">Match Lifecycle</text>
<text text-anchor="middle" x="984.5" y="-121.8" font-family="Times,serif" font-size="14.00" fill="#f6d77a">Build/Countdown/Active/RoundOver</text>
</g>
<!-- AppRuntime&#45;&gt;Match -->
<g id="edge3" class="edge">
<title>AppRuntime&#45;&gt;Match</title>
<path fill="none" stroke="#d49b3a" d="M199.3,-112.9C205.29,-113.31 211.22,-113.68 217,-114 432.89,-125.93 683.41,-130.37 837.69,-132.02"/>
<polygon fill="#d49b3a" stroke="#d49b3a" points="837.67,-135.52 847.71,-132.13 837.75,-128.52 837.67,-135.52"/>
<text text-anchor="middle" x="507" y="-132.8" font-family="Times,serif" font-size="14.00" fill="#f6d77a">START_SKIRMISH / START_VERSUS</text>
</g>
<!-- Warfront&#45;&gt;Match -->
<g id="edge2" class="edge">
<title>Warfront&#45;&gt;Match</title>
<path fill="none" stroke="#d49b3a" d="M630.69,-80.35C690.92,-85.23 764.45,-92.36 830,-102 848.67,-104.75 868.5,-108.28 887.48,-111.98"/>
<polygon fill="#d49b3a" stroke="#d49b3a" points="886.84,-115.42 897.32,-113.92 888.19,-108.55 886.84,-115.42"/>
<text text-anchor="middle" x="743" y="-105.8" font-family="Times,serif" font-size="14.00" fill="#f6d77a">START_BATTLE_MATCH</text>
</g>
<!-- Events -->
<g id="node4" class="node">
<title>Events</title>
<path fill="#101820" stroke="#d49b3a" d="M3024.78,-145C3024.78,-145 2776.78,-145 2776.78,-145 2770.78,-145 2764.78,-139 2764.78,-133 2764.78,-133 2764.78,-119 2764.78,-119 2764.78,-113 2770.78,-107 2776.78,-107 2776.78,-107 3024.78,-107 3024.78,-107 3030.78,-107 3036.78,-113 3036.78,-119 3036.78,-119 3036.78,-133 3036.78,-133 3036.78,-139 3030.78,-145 3024.78,-145"/>
<text text-anchor="middle" x="2900.78" y="-129.8" font-family="Times,serif" font-size="14.00" fill="#f6d77a">Ceremony Events</text>
<text text-anchor="middle" x="2900.78" y="-114.8" font-family="Times,serif" font-size="14.00" fill="#f6d77a">Tournament/Duel/Wedding/Banquet</text>
</g>
<!-- Warfront&#45;&gt;Events -->
<g id="edge17" class="edge">
<title>Warfront&#45;&gt;Events</title>
<path fill="none" stroke="#d49b3a" d="M630.56,-61.61C726.52,-54.37 863.41,-46 983.5,-46 983.5,-46 983.5,-46 2230.89,-46 2430.22,-46 2660.61,-81.46 2792.36,-105.16"/>
<polygon fill="#d49b3a" stroke="#d49b3a" points="2791.99,-108.65 2802.45,-106.99 2793.24,-101.76 2791.99,-108.65"/>
<text text-anchor="middle" x="1437" y="-49.8" font-family="Times,serif" font-size="14.00" fill="#f6d77a">EVENT_ROLL_REQUESTED / queued edicts</text>
</g>
<!-- Player -->
<g id="node5" class="node">
<title>Player</title>
<path fill="#101820" stroke="#d49b3a" d="M1580.5,-214C1580.5,-214 1293.5,-214 1293.5,-214 1287.5,-214 1281.5,-208 1281.5,-202 1281.5,-202 1281.5,-188 1281.5,-188 1281.5,-182 1287.5,-176 1293.5,-176 1293.5,-176 1580.5,-176 1580.5,-176 1586.5,-176 1592.5,-182 1592.5,-188 1592.5,-188 1592.5,-202 1592.5,-202 1592.5,-208 1586.5,-214 1580.5,-214"/>
<text text-anchor="middle" x="1437" y="-198.8" font-family="Times,serif" font-size="14.00" fill="#f6d77a">Player Actor × N</text>
<text text-anchor="middle" x="1437" y="-183.8" font-family="Times,serif" font-size="14.00" fill="#f6d77a">Flight/Lance/Ordnance/Interact/Recovery</text>
</g>
<!-- Match&#45;&gt;Player -->
<g id="edge4" class="edge">
<title>Match&#45;&gt;Player</title>
<path fill="none" stroke="#d49b3a" d="M1111.13,-152.01C1120.56,-153.38 1129.93,-154.72 1139,-156 1183.77,-162.29 1232.37,-168.81 1277.05,-174.67"/>
<polygon fill="#d49b3a" stroke="#d49b3a" points="1276.75,-178.16 1287.12,-175.99 1277.66,-171.22 1276.75,-178.16"/>
<text text-anchor="middle" x="1200.5" y="-175.8" font-family="Times,serif" font-size="14.00" fill="#f6d77a">spawn actors</text>
</g>
<!-- Objectives -->
<g id="node6" class="node">
<title>Objectives</title>
<path fill="#101820" stroke="#d49b3a" d="M1581.5,-158C1581.5,-158 1292.5,-158 1292.5,-158 1286.5,-158 1280.5,-152 1280.5,-146 1280.5,-146 1280.5,-132 1280.5,-132 1280.5,-126 1286.5,-120 1292.5,-120 1292.5,-120 1581.5,-120 1581.5,-120 1587.5,-120 1593.5,-126 1593.5,-132 1593.5,-132 1593.5,-146 1593.5,-146 1593.5,-152 1587.5,-158 1581.5,-158"/>
<text text-anchor="middle" x="1437" y="-142.8" font-family="Times,serif" font-size="14.00" fill="#f6d77a">Objectives</text>
<text text-anchor="middle" x="1437" y="-127.8" font-family="Times,serif" font-size="14.00" fill="#f6d77a">Keeps/Outposts/Shrines/Supply/Hostages</text>
</g>
<!-- Match&#45;&gt;Objectives -->
<g id="edge5" class="edge">
<title>Match&#45;&gt;Objectives</title>
<path fill="none" stroke="#d49b3a" d="M1121.28,-134.81C1168.18,-135.43 1221.26,-136.14 1270.28,-136.79"/>
<polygon fill="#d49b3a" stroke="#d49b3a" points="1270.31,-140.29 1280.35,-136.93 1270.4,-133.29 1270.31,-140.29"/>
<text text-anchor="middle" x="1200.5" y="-140.8" font-family="Times,serif" font-size="14.00" fill="#f6d77a">spawn objectives</text>
</g>
<!-- Rewards -->
<g id="node8" class="node">
<title>Rewards</title>
<path fill="#101820" stroke="#d49b3a" d="M3562.28,-87C3562.28,-87 3305.28,-87 3305.28,-87 3299.28,-87 3293.28,-81 3293.28,-75 3293.28,-75 3293.28,-61 3293.28,-61 3293.28,-55 3299.28,-49 3305.28,-49 3305.28,-49 3562.28,-49 3562.28,-49 3568.28,-49 3574.28,-55 3574.28,-61 3574.28,-61 3574.28,-75 3574.28,-75 3574.28,-81 3568.28,-87 3562.28,-87"/>
<text text-anchor="middle" x="3433.78" y="-71.8" font-family="Times,serif" font-size="14.00" fill="#f6d77a">Rewards</text>
<text text-anchor="middle" x="3433.78" y="-56.8" font-family="Times,serif" font-size="14.00" fill="#f6d77a">Glory/Coin/Influence/Laurels/Unlocks</text>
</g>
<!-- Match&#45;&gt;Rewards -->
<g id="edge14" class="edge">
<title>Match&#45;&gt;Rewards</title>
<path fill="none" stroke="#d49b3a" d="M1121.02,-121.32C1170.96,-117.43 1228.02,-113.46 1280,-111 2031.76,-75.44 2932.55,-69.22 3283.02,-68.18"/>
<polygon fill="#d49b3a" stroke="#d49b3a" points="3283.23,-71.68 3293.22,-68.15 3283.21,-64.68 3283.23,-71.68"/>
<text text-anchor="middle" x="2229.89" y="-88.8" font-family="Times,serif" font-size="14.00" fill="#f6d77a">FINAL_SCORE_SNAPSHOT</text>
</g>
<!-- Events&#45;&gt;Rewards -->
<g id="edge15" class="edge">
<title>Events&#45;&gt;Rewards</title>
<path fill="none" stroke="#d49b3a" d="M3017.78,-106.98C3030.26,-105.18 3042.77,-103.48 3054.78,-102 3129.73,-92.76 3213.34,-84.98 3282.82,-79.2"/>
<polygon fill="#d49b3a" stroke="#d49b3a" points="3283.29,-82.68 3292.97,-78.36 3282.72,-75.7 3283.29,-82.68"/>
<text text-anchor="middle" x="3154.78" y="-105.8" font-family="Times,serif" font-size="14.00" fill="#f6d77a">event rewards/penalties</text>
</g>
<!-- MatchRules -->
<g id="node9" class="node">
<title>MatchRules</title>
<polygon fill="#101820" stroke="#d49b3a" points="3588.78,-243 3272.78,-243 3272.78,-205 3594.78,-205 3594.78,-237 3588.78,-243"/>
<polyline fill="none" stroke="#d49b3a" points="3588.78,-243 3588.78,-237 "/>
<polyline fill="none" stroke="#d49b3a" points="3594.78,-237 3588.78,-237 "/>
<text text-anchor="middle" x="3433.78" y="-227.8" font-family="Times,serif" font-size="14.00" fill="#f6d77a">MatchRules</text>
<text text-anchor="middle" x="3433.78" y="-212.8" font-family="Times,serif" font-size="14.00" fill="#f6d77a">current rules + temporary event modifiers</text>
</g>
<!-- Events&#45;&gt;MatchRules -->
<g id="edge6" class="edge">
<title>Events&#45;&gt;MatchRules</title>
<path fill="none" stroke="#d49b3a" d="M3036.8,-118.81C3103.31,-118.42 3184.19,-122.7 3254.78,-140 3305.2,-152.35 3358.47,-179.63 3393.44,-199.76"/>
<polygon fill="#d49b3a" stroke="#d49b3a" points="3391.96,-202.95 3402.36,-204.97 3395.49,-196.91 3391.96,-202.95"/>
<text text-anchor="middle" x="3154.78" y="-143.8" font-family="Times,serif" font-size="14.00" fill="#f6d77a">EVENT_RULES_APPLIED</text>
</g>
<!-- EventBus -->
<g id="node10" class="node">
<title>EventBus</title>
<ellipse fill="#101820" stroke="#d49b3a" cx="2229.89" cy="-161" rx="207.78" ry="26.74"/>
<text text-anchor="middle" x="2229.89" y="-164.8" font-family="Times,serif" font-size="14.00" fill="#f6d77a">Deterministic Event Bus</text>
<text text-anchor="middle" x="2229.89" y="-149.8" font-family="Times,serif" font-size="14.00" fill="#f6d77a">immutable events sorted by tick/entity</text>
</g>
<!-- Player&#45;&gt;EventBus -->
<g id="edge9" class="edge">
<title>Player&#45;&gt;EventBus</title>
<path fill="none" stroke="#d49b3a" d="M1592.84,-188.34C1715.46,-183.07 1887.88,-175.66 2022.27,-169.88"/>
<polygon fill="#d49b3a" stroke="#d49b3a" points="2022.45,-173.38 2032.29,-169.45 2022.15,-166.38 2022.45,-173.38"/>
<text text-anchor="middle" x="1808" y="-189.8" font-family="Times,serif" font-size="14.00" fill="#f6d77a">JOUST_OUTCOME, BOMB_DROPPED, CAPTURE_TICK</text>
</g>
<!-- Objectives&#45;&gt;EventBus -->
<g id="edge10" class="edge">
<title>Objectives&#45;&gt;EventBus</title>
<path fill="none" stroke="#d49b3a" d="M1593.6,-139.19C1707.34,-139.82 1865.29,-141.71 2004,-147 2013.89,-147.38 2024.03,-147.82 2034.27,-148.3"/>
<polygon fill="#d49b3a" stroke="#d49b3a" points="2034.37,-151.81 2044.53,-148.8 2034.71,-144.82 2034.37,-151.81"/>
<text text-anchor="middle" x="1808" y="-150.8" font-family="Times,serif" font-size="14.00" fill="#f6d77a">KEEP_BREACHED, OUTPOST_CAPTURED</text>
</g>
<!-- Scoring -->
<g id="node7" class="node">
<title>Scoring</title>
<path fill="#101820" stroke="#d49b3a" d="M3984.78,-243C3984.78,-243 3709.78,-243 3709.78,-243 3703.78,-243 3697.78,-237 3697.78,-231 3697.78,-231 3697.78,-217 3697.78,-217 3697.78,-211 3703.78,-205 3709.78,-205 3709.78,-205 3984.78,-205 3984.78,-205 3990.78,-205 3996.78,-211 3996.78,-217 3996.78,-217 3996.78,-231 3996.78,-231 3996.78,-237 3990.78,-243 3984.78,-243"/>
<text text-anchor="middle" x="3847.28" y="-227.8" font-family="Times,serif" font-size="14.00" fill="#f6d77a">Scoring</text>
<text text-anchor="middle" x="3847.28" y="-212.8" font-family="Times,serif" font-size="14.00" fill="#f6d77a">Score atoms + morale + victory checks</text>
</g>
<!-- Scoring&#45;&gt;Match -->
<g id="edge13" class="edge">
<title>Scoring&#45;&gt;Match</title>
<path fill="none" stroke="#d49b3a" d="M3738.79,-243.05C3655.99,-256.08 3538.5,-271 3434.78,-271 1436,-271 1436,-271 1436,-271 1281.74,-271 1110.28,-196.11 1030.68,-156.67"/>
<polygon fill="#d49b3a" stroke="#d49b3a" points="1031.94,-153.39 1021.43,-152.04 1028.81,-159.65 1031.94,-153.39"/>
<text text-anchor="middle" x="2601.28" y="-274.8" font-family="Times,serif" font-size="14.00" fill="#f6d77a">VICTORY_CONDITION_MET</text>
</g>
<!-- Rewards&#45;&gt;Warfront -->
<g id="edge16" class="edge">
<title>Rewards&#45;&gt;Warfront</title>
<path fill="none" stroke="#d49b3a" d="M3340.67,-48.97C3235.13,-28.85 3056.76,0 2901.78,0 983.5,0 983.5,0 983.5,0 846.61,0 690.04,-29.53 595.13,-50.77"/>
<polygon fill="#d49b3a" stroke="#d49b3a" points="594.27,-47.37 585.29,-52.99 595.82,-54.2 594.27,-47.37"/>
<text text-anchor="middle" x="1808" y="-3.8" font-family="Times,serif" font-size="14.00" fill="#f6d77a">REWARDS_COMMITTED + region consequences</text>
</g>
<!-- MatchRules&#45;&gt;Player -->
<g id="edge7" class="edge">
<title>MatchRules&#45;&gt;Player</title>
<path fill="none" stroke="#d49b3a" d="M3272.58,-224.85C2955.46,-225.99 2225.32,-225.81 1612,-205 1608.92,-204.9 1605.82,-204.78 1602.69,-204.67"/>
<polygon fill="#d49b3a" stroke="#d49b3a" points="1602.76,-201.17 1592.63,-204.26 1602.48,-208.16 1602.76,-201.17"/>
<text text-anchor="middle" x="2601.28" y="-227.8" font-family="Times,serif" font-size="14.00" fill="#f6d77a">guards: ordnance, duel lock, truce</text>
</g>
<!-- MatchRules&#45;&gt;Scoring -->
<g id="edge8" class="edge">
<title>MatchRules&#45;&gt;Scoring</title>
<path fill="none" stroke="#d49b3a" d="M3595.05,-224C3625.36,-224 3657.06,-224 3687.33,-224"/>
<polygon fill="#d49b3a" stroke="#d49b3a" points="3687.54,-227.5 3697.54,-224 3687.54,-220.5 3687.54,-227.5"/>
<text text-anchor="middle" x="3646.28" y="-227.8" font-family="Times,serif" font-size="14.00" fill="#f6d77a">modifiers</text>
</g>
<!-- EventBus&#45;&gt;Events -->
<g id="edge12" class="edge">
<title>EventBus&#45;&gt;Events</title>
<path fill="none" stroke="#d49b3a" d="M2419.54,-149.98C2431.8,-149.3 2443.97,-148.63 2455.78,-148 2555.49,-142.65 2667.81,-137.09 2754.54,-132.89"/>
<polygon fill="#d49b3a" stroke="#d49b3a" points="2754.9,-136.38 2764.72,-132.4 2754.56,-129.39 2754.9,-136.38"/>
<text text-anchor="middle" x="2601.28" y="-151.8" font-family="Times,serif" font-size="14.00" fill="#f6d77a">HONOUR_VIOLATION, TRUCE_BROKEN</text>
</g>
<!-- EventBus&#45;&gt;Scoring -->
<g id="edge11" class="edge">
<title>EventBus&#45;&gt;Scoring</title>
<path fill="none" stroke="#d49b3a" d="M2436.66,-164.13C2760.85,-169.42 3376.12,-181.05 3594.78,-196 3624.71,-198.05 3656.56,-200.99 3687.19,-204.21"/>
<polygon fill="#d49b3a" stroke="#d49b3a" points="3687.21,-207.74 3697.52,-205.32 3687.95,-200.78 3687.21,-207.74"/>
<text text-anchor="middle" x="3154.78" y="-184.8" font-family="Times,serif" font-size="14.00" fill="#f6d77a">SCORE_EVENT_ACCEPTED</text>
</g>
</g>
</svg>
