<?xml version="1.0" encoding="UTF-8" standalone="no"?>
<!DOCTYPE svg PUBLIC "-//W3C//DTD SVG 1.1//EN"
 "http://www.w3.org/Graphics/SVG/1.1/DTD/svg11.dtd">
<!-- Generated by graphviz version 2.42.4 (0)
 -->
<!-- Title: MatchLifecycle Pages: 1 -->
<svg width="3189pt" height="296pt"
 viewBox="0.00 0.00 3189.00 296.00" xmlns="http://www.w3.org/2000/svg" xmlns:xlink="http://www.w3.org/1999/xlink">
<g id="graph0" class="graph" transform="scale(1 1) rotate(0) translate(4 292)">
<title>MatchLifecycle</title>
<polygon fill="white" stroke="transparent" points="-4,4 -4,-292 3185,-292 3185,4 -4,4"/>
<text text-anchor="middle" x="1590.5" y="-268" font-family="Times,serif" font-size="20.00">Match Lifecycle State Graph</text>
<!-- Inactive -->
<g id="node1" class="node">
<title>Inactive</title>
<path fill="none" stroke="#d49b3a" d="M62,-36C62,-36 12,-36 12,-36 6,-36 0,-30 0,-24 0,-24 0,-12 0,-12 0,-6 6,0 12,0 12,0 62,0 62,0 68,0 74,-6 74,-12 74,-12 74,-24 74,-24 74,-30 68,-36 62,-36"/>
<text text-anchor="middle" x="37" y="-14.3" font-family="Times,serif" font-size="14.00">Inactive</text>
</g>
<!-- Constructing -->
<g id="node2" class="node">
<title>Constructing</title>
<path fill="none" stroke="#d49b3a" d="M524,-66C524,-66 438,-66 438,-66 432,-66 426,-60 426,-54 426,-54 426,-42 426,-42 426,-36 432,-30 438,-30 438,-30 524,-30 524,-30 530,-30 536,-36 536,-42 536,-42 536,-54 536,-54 536,-60 530,-66 524,-66"/>
<text text-anchor="middle" x="481" y="-44.3" font-family="Times,serif" font-size="14.00">Constructing</text>
</g>
<!-- Inactive&#45;&gt;Constructing -->
<g id="edge1" class="edge">
<title>Inactive&#45;&gt;Constructing</title>
<path fill="none" stroke="#9c6b1f" d="M74.17,-20.46C148.97,-25.53 321.52,-37.24 415.74,-43.64"/>
<polygon fill="#9c6b1f" stroke="#9c6b1f" points="415.51,-47.13 425.72,-44.32 415.98,-40.15 415.51,-47.13"/>
<text text-anchor="middle" x="250" y="-46.8" font-family="Times,serif" font-size="14.00">MATCH_STARTED / seed RNG, open scoring</text>
</g>
<!-- SpawnWarmup -->
<g id="node3" class="node">
<title>SpawnWarmup</title>
<path fill="none" stroke="#d49b3a" d="M856,-66C856,-66 755,-66 755,-66 749,-66 743,-60 743,-54 743,-54 743,-42 743,-42 743,-36 749,-30 755,-30 755,-30 856,-30 856,-30 862,-30 868,-36 868,-42 868,-42 868,-54 868,-54 868,-60 862,-66 856,-66"/>
<text text-anchor="middle" x="805.5" y="-44.3" font-family="Times,serif" font-size="14.00">SpawnWarmup</text>
</g>
<!-- Constructing&#45;&gt;SpawnWarmup -->
<g id="edge2" class="edge">
<title>Constructing&#45;&gt;SpawnWarmup</title>
<path fill="none" stroke="#9c6b1f" d="M536.34,-48C590.31,-48 673.34,-48 732.71,-48"/>
<polygon fill="#9c6b1f" stroke="#9c6b1f" points="732.76,-51.5 742.76,-48 732.76,-44.5 732.76,-51.5"/>
<text text-anchor="middle" x="639.5" y="-51.8" font-family="Times,serif" font-size="14.00">MATCH_SETUP_READY</text>
</g>
<!-- Countdown -->
<g id="node4" class="node">
<title>Countdown</title>
<path fill="none" stroke="#d49b3a" d="M1102,-117C1102,-117 1028,-117 1028,-117 1022,-117 1016,-111 1016,-105 1016,-105 1016,-93 1016,-93 1016,-87 1022,-81 1028,-81 1028,-81 1102,-81 1102,-81 1108,-81 1114,-87 1114,-93 1114,-93 1114,-105 1114,-105 1114,-111 1108,-117 1102,-117"/>
<text text-anchor="middle" x="1065" y="-95.3" font-family="Times,serif" font-size="14.00">Countdown</text>
</g>
<!-- SpawnWarmup&#45;&gt;Countdown -->
<g id="edge3" class="edge">
<title>SpawnWarmup&#45;&gt;Countdown</title>
<path fill="none" stroke="#9c6b1f" d="M868.18,-60.22C909.96,-68.49 964.83,-79.36 1005.85,-87.48"/>
<polygon fill="#9c6b1f" stroke="#9c6b1f" points="1005.21,-90.92 1015.7,-89.43 1006.57,-84.06 1005.21,-90.92"/>
<text text-anchor="middle" x="942" y="-88.8" font-family="Times,serif" font-size="14.00">SPAWN_READY</text>
</g>
<!-- NormalPlay -->
<g id="node5" class="node">
<title>NormalPlay</title>
<path fill="none" stroke="#d49b3a" d="M1430.5,-168C1430.5,-168 1353.5,-168 1353.5,-168 1347.5,-168 1341.5,-162 1341.5,-156 1341.5,-156 1341.5,-144 1341.5,-144 1341.5,-138 1347.5,-132 1353.5,-132 1353.5,-132 1430.5,-132 1430.5,-132 1436.5,-132 1442.5,-138 1442.5,-144 1442.5,-144 1442.5,-156 1442.5,-156 1442.5,-162 1436.5,-168 1430.5,-168"/>
<text text-anchor="middle" x="1392" y="-146.3" font-family="Times,serif" font-size="14.00">NormalPlay</text>
</g>
<!-- Countdown&#45;&gt;NormalPlay -->
<g id="edge4" class="edge">
<title>Countdown&#45;&gt;NormalPlay</title>
<path fill="none" stroke="#9c6b1f" d="M1114.3,-106.58C1172.09,-115.65 1268.84,-130.83 1331.27,-140.63"/>
<polygon fill="#9c6b1f" stroke="#9c6b1f" points="1330.94,-144.12 1341.36,-142.21 1332.03,-137.2 1330.94,-144.12"/>
<text text-anchor="middle" x="1210" y="-136.8" font-family="Times,serif" font-size="14.00">COUNTDOWN_DONE</text>
</g>
<!-- EventOverride -->
<g id="node6" class="node">
<title>EventOverride</title>
<path fill="none" stroke="#d49b3a" d="M1958.5,-219C1958.5,-219 1860.5,-219 1860.5,-219 1854.5,-219 1848.5,-213 1848.5,-207 1848.5,-207 1848.5,-195 1848.5,-195 1848.5,-189 1854.5,-183 1860.5,-183 1860.5,-183 1958.5,-183 1958.5,-183 1964.5,-183 1970.5,-189 1970.5,-195 1970.5,-195 1970.5,-207 1970.5,-207 1970.5,-213 1964.5,-219 1958.5,-219"/>
<text text-anchor="middle" x="1909.5" y="-197.3" font-family="Times,serif" font-size="14.00">EventOverride</text>
</g>
<!-- NormalPlay&#45;&gt;EventOverride -->
<g id="edge5" class="edge">
<title>NormalPlay&#45;&gt;EventOverride</title>
<path fill="none" stroke="#9c6b1f" d="M1421.93,-168.01C1441.91,-179.35 1469.55,-192.96 1496,-199 1613.79,-225.89 1755.49,-218.21 1838.42,-209.84"/>
<polygon fill="#9c6b1f" stroke="#9c6b1f" points="1838.9,-213.31 1848.48,-208.79 1838.17,-206.35 1838.9,-213.31"/>
<text text-anchor="middle" x="1638" y="-220.8" font-family="Times,serif" font-size="14.00">EVENT_RULES_APPLIED</text>
</g>
<!-- SuddenDeath -->
<g id="node7" class="node">
<title>SuddenDeath</title>
<path fill="none" stroke="#d49b3a" d="M2424.5,-177C2424.5,-177 2335.5,-177 2335.5,-177 2329.5,-177 2323.5,-171 2323.5,-165 2323.5,-165 2323.5,-153 2323.5,-153 2323.5,-147 2329.5,-141 2335.5,-141 2335.5,-141 2424.5,-141 2424.5,-141 2430.5,-141 2436.5,-147 2436.5,-153 2436.5,-153 2436.5,-165 2436.5,-165 2436.5,-171 2430.5,-177 2424.5,-177"/>
<text text-anchor="middle" x="2380" y="-155.3" font-family="Times,serif" font-size="14.00">SuddenDeath</text>
</g>
<!-- NormalPlay&#45;&gt;SuddenDeath -->
<g id="edge7" class="edge">
<title>NormalPlay&#45;&gt;SuddenDeath</title>
<path fill="none" stroke="#9c6b1f" d="M1442.57,-150.45C1606.04,-151.94 2128.12,-156.71 2313.18,-158.4"/>
<polygon fill="#9c6b1f" stroke="#9c6b1f" points="2313.28,-161.9 2323.31,-158.49 2313.35,-154.9 2313.28,-161.9"/>
<text text-anchor="middle" x="1909.5" y="-158.8" font-family="Times,serif" font-size="14.00">SUDDEN_DEATH_TRIGGERED</text>
</g>
<!-- Paused -->
<g id="node8" class="node">
<title>Paused</title>
<path fill="none" stroke="#d49b3a" d="M2402,-105C2402,-105 2358,-105 2358,-105 2352,-105 2346,-99 2346,-93 2346,-93 2346,-81 2346,-81 2346,-75 2352,-69 2358,-69 2358,-69 2402,-69 2402,-69 2408,-69 2414,-75 2414,-81 2414,-81 2414,-93 2414,-93 2414,-99 2408,-105 2402,-105"/>
<text text-anchor="middle" x="2380" y="-83.3" font-family="Times,serif" font-size="14.00">Paused</text>
</g>
<!-- NormalPlay&#45;&gt;Paused -->
<g id="edge9" class="edge">
<title>NormalPlay&#45;&gt;Paused</title>
<path fill="none" stroke="#9c6b1f" d="M1442.81,-145.63C1551.15,-136.26 1816.4,-114.02 2039,-101 2145.43,-94.77 2270.75,-90.37 2335.45,-88.31"/>
<polygon fill="#9c6b1f" stroke="#9c6b1f" points="2335.8,-91.8 2345.68,-87.99 2335.58,-84.81 2335.8,-91.8"/>
<text text-anchor="middle" x="1909.5" y="-119.8" font-family="Times,serif" font-size="14.00">PAUSE_REQUESTED</text>
</g>
<!-- RoundOver -->
<g id="node9" class="node">
<title>RoundOver</title>
<path fill="none" stroke="#d49b3a" d="M2801,-204C2801,-204 2728,-204 2728,-204 2722,-204 2716,-198 2716,-192 2716,-192 2716,-180 2716,-180 2716,-174 2722,-168 2728,-168 2728,-168 2801,-168 2801,-168 2807,-168 2813,-174 2813,-180 2813,-180 2813,-192 2813,-192 2813,-198 2807,-204 2801,-204"/>
<text text-anchor="middle" x="2764.5" y="-182.3" font-family="Times,serif" font-size="14.00">RoundOver</text>
</g>
<!-- NormalPlay&#45;&gt;RoundOver -->
<g id="edge12" class="edge">
<title>NormalPlay&#45;&gt;RoundOver</title>
<path fill="none" stroke="#9c6b1f" d="M1407.46,-168.03C1425.56,-189.01 1458.77,-222.5 1496,-236 1523.06,-245.81 1906.07,-252.64 2480,-233 2577.03,-229.68 2604.31,-244.47 2698,-219 2707.02,-216.55 2716.26,-212.79 2724.84,-208.67"/>
<polygon fill="#9c6b1f" stroke="#9c6b1f" points="2726.52,-211.74 2733.86,-204.11 2723.36,-205.5 2726.52,-211.74"/>
<text text-anchor="middle" x="2150.5" y="-246.8" font-family="Times,serif" font-size="14.00">VICTORY_CONDITION_MET</text>
</g>
<!-- EventOverride&#45;&gt;NormalPlay -->
<g id="edge6" class="edge">
<title>EventOverride&#45;&gt;NormalPlay</title>
<path fill="none" stroke="#9c6b1f" d="M1848.2,-189.93C1826.73,-186.31 1802.34,-182.57 1780,-180 1654.32,-165.56 1622.03,-171.94 1496,-161 1482.02,-159.79 1466.98,-158.29 1452.84,-156.8"/>
<polygon fill="#9c6b1f" stroke="#9c6b1f" points="1453.05,-153.3 1442.73,-155.71 1452.3,-160.26 1453.05,-153.3"/>
<text text-anchor="middle" x="1638" y="-183.8" font-family="Times,serif" font-size="14.00">EVENT_COMPLETED / restore baseline</text>
</g>
<!-- EventOverride&#45;&gt;SuddenDeath -->
<g id="edge8" class="edge">
<title>EventOverride&#45;&gt;SuddenDeath</title>
<path fill="none" stroke="#9c6b1f" d="M1970.56,-192.32C1992.11,-189.4 2016.61,-186.3 2039,-184 2134.06,-174.23 2244.46,-166.84 2313.04,-162.71"/>
<polygon fill="#9c6b1f" stroke="#9c6b1f" points="2313.48,-166.19 2323.26,-162.1 2313.07,-159.2 2313.48,-166.19"/>
<text text-anchor="middle" x="2150.5" y="-187.8" font-family="Times,serif" font-size="14.00">SUDDEN_DEATH_TRIGGERED</text>
</g>
<!-- EventOverride&#45;&gt;Paused -->
<g id="edge10" class="edge">
<title>EventOverride&#45;&gt;Paused</title>
<path fill="none" stroke="#9c6b1f" d="M1970.71,-190.58C1987.89,-185.8 2006,-178.9 2021,-169 2031.54,-162.04 2028.1,-153.39 2039,-147 2088.75,-117.86 2255.71,-98.64 2335.64,-90.88"/>
<polygon fill="#9c6b1f" stroke="#9c6b1f" points="2336.24,-94.34 2345.86,-89.9 2335.57,-87.37 2336.24,-94.34"/>
<text text-anchor="middle" x="2150.5" y="-150.8" font-family="Times,serif" font-size="14.00">PAUSE_REQUESTED</text>
</g>
<!-- EventOverride&#45;&gt;RoundOver -->
<g id="edge13" class="edge">
<title>EventOverride&#45;&gt;RoundOver</title>
<path fill="none" stroke="#9c6b1f" d="M1970.97,-204.81C2103.22,-212.28 2427.95,-225.89 2698,-199 2700.52,-198.75 2703.09,-198.45 2705.69,-198.1"/>
<polygon fill="#9c6b1f" stroke="#9c6b1f" points="2706.36,-201.54 2715.72,-196.59 2705.32,-194.62 2706.36,-201.54"/>
<text text-anchor="middle" x="2380" y="-217.8" font-family="Times,serif" font-size="14.00">VICTORY_CONDITION_MET</text>
</g>
<!-- SuddenDeath&#45;&gt;RoundOver -->
<g id="edge14" class="edge">
<title>SuddenDeath&#45;&gt;RoundOver</title>
<path fill="none" stroke="#9c6b1f" d="M2436.62,-162.93C2508.4,-167.99 2632.72,-176.77 2705.6,-181.91"/>
<polygon fill="#9c6b1f" stroke="#9c6b1f" points="2705.74,-185.43 2715.96,-182.64 2706.24,-178.45 2705.74,-185.43"/>
<text text-anchor="middle" x="2598" y="-183.8" font-family="Times,serif" font-size="14.00">VICTORY_CONDITION_MET</text>
</g>
<!-- Paused&#45;&gt;NormalPlay -->
<g id="edge11" class="edge">
<title>Paused&#45;&gt;NormalPlay</title>
<path fill="none" stroke="#9c6b1f" d="M2345.98,-83.61C2228.49,-72.47 1820.47,-41.69 1496,-114 1479.69,-117.63 1462.4,-123.04 1446.73,-128.56"/>
<polygon fill="#9c6b1f" stroke="#9c6b1f" points="1445.42,-125.31 1437.21,-132 1447.8,-131.89 1445.42,-125.31"/>
<text text-anchor="middle" x="1909.5" y="-77.8" font-family="Times,serif" font-size="14.00">RESUME</text>
</g>
<!-- ResultsExported -->
<g id="node10" class="node">
<title>ResultsExported</title>
<path fill="none" stroke="#d49b3a" d="M3169,-36C3169,-36 3057,-36 3057,-36 3051,-36 3045,-30 3045,-24 3045,-24 3045,-12 3045,-12 3045,-6 3051,0 3057,0 3057,0 3169,0 3169,0 3175,0 3181,-6 3181,-12 3181,-12 3181,-24 3181,-24 3181,-30 3175,-36 3169,-36"/>
<text text-anchor="middle" x="3113" y="-14.3" font-family="Times,serif" font-size="14.00">ResultsExported</text>
</g>
<!-- RoundOver&#45;&gt;ResultsExported -->
<g id="edge15" class="edge">
<title>RoundOver&#45;&gt;ResultsExported</title>
<path fill="none" stroke="#9c6b1f" d="M2802.91,-167.86C2866.59,-136.99 2995.88,-74.3 3065.35,-40.62"/>
<polygon fill="#9c6b1f" stroke="#9c6b1f" points="3067.27,-43.57 3074.75,-36.06 3064.22,-37.28 3067.27,-43.57"/>
<text text-anchor="middle" x="2929" y="-156.8" font-family="Times,serif" font-size="14.00">FINAL_SCORE_SNAPSHOT</text>
</g>
<!-- ResultsExported&#45;&gt;Inactive -->
<g id="edge16" class="edge">
<title>ResultsExported&#45;&gt;Inactive</title>
<path fill="none" stroke="#9c6b1f" d="M3044.97,-13.07C2975.2,-8.37 2862.76,-2 2765.5,-2 480,-2 480,-2 480,-2 335.6,-2 164.83,-10.63 84.36,-15.22"/>
<polygon fill="#9c6b1f" stroke="#9c6b1f" points="83.86,-11.74 74.08,-15.81 84.26,-18.73 83.86,-11.74"/>
<text text-anchor="middle" x="1392" y="-5.8" font-family="Times,serif" font-size="14.00">RESET_MATCH_GRAPH</text>
</g>
</g>
</svg>
