<?xml version="1.0" encoding="UTF-8" standalone="no"?>
<!DOCTYPE svg PUBLIC "-//W3C//DTD SVG 1.1//EN"
 "http://www.w3.org/Graphics/SVG/1.1/DTD/svg11.dtd">
<!-- Generated by graphviz version 2.42.4 (0)
 -->
<!-- Title: PlayerActorParallel Pages: 1 -->
<svg width="2947pt" height="1414pt"
 viewBox="0.00 0.00 2947.00 1414.00" xmlns="http://www.w3.org/2000/svg" xmlns:xlink="http://www.w3.org/1999/xlink">
<g id="graph0" class="graph" transform="scale(1 1) rotate(0) translate(4 1410)">
<title>PlayerActorParallel</title>
<polygon fill="white" stroke="transparent" points="-4,4 -4,-1410 2943,-1410 2943,4 -4,4"/>
<text text-anchor="middle" x="1469.5" y="-1386" font-family="Times,serif" font-size="20.00">Player Actor Parallel State Regions</text>
<g id="clust1" class="cluster">
<title>cluster_mobility</title>
<polygon fill="none" stroke="black" points="8,-424 8,-738 1187,-738 1187,-424 8,-424"/>
<text text-anchor="middle" x="597.5" y="-718" font-family="Times,serif" font-size="20.00">Mobility</text>
</g>
<g id="clust2" class="cluster">
<title>cluster_lance</title>
<polygon fill="none" stroke="black" points="821,-223 821,-416 1890,-416 1890,-223 821,-223"/>
<text text-anchor="middle" x="1355.5" y="-396" font-family="Times,serif" font-size="20.00">Lance</text>
</g>
<g id="clust3" class="cluster">
<title>cluster_ordnance</title>
<polygon fill="none" stroke="black" points="14.5,-746 14.5,-1015 608.5,-1015 608.5,-746 14.5,-746"/>
<text text-anchor="middle" x="311.5" y="-995" font-family="Times,serif" font-size="20.00">Ordnance</text>
</g>
<g id="clust4" class="cluster">
<title>cluster_interaction</title>
<polygon fill="none" stroke="black" points="18,-1023 18,-1368 618,-1368 618,-1023 18,-1023"/>
<text text-anchor="middle" x="318" y="-1348" font-family="Times,serif" font-size="20.00">Interaction</text>
</g>
<g id="clust5" class="cluster">
<title>cluster_recovery</title>
<polygon fill="none" stroke="black" points="1784.5,-8 1784.5,-215 2931,-215 2931,-8 1784.5,-8"/>
<text text-anchor="middle" x="2357.75" y="-195" font-family="Times,serif" font-size="20.00">Recovery</text>
</g>
<!-- Perched -->
<g id="node1" class="node">
<title>Perched</title>
<path fill="none" stroke="#d49b3a" d="M78,-682C78,-682 28,-682 28,-682 22,-682 16,-676 16,-670 16,-670 16,-658 16,-658 16,-652 22,-646 28,-646 28,-646 78,-646 78,-646 84,-646 90,-652 90,-658 90,-658 90,-670 90,-670 90,-676 84,-682 78,-682"/>
<text text-anchor="middle" x="53" y="-660.3" font-family="Times,serif" font-size="14.00">Perched</text>
</g>
<!-- Launching -->
<g id="node2" class="node">
<title>Launching</title>
<path fill="none" stroke="#d49b3a" d="M573,-649C573,-649 506,-649 506,-649 500,-649 494,-643 494,-637 494,-637 494,-625 494,-625 494,-619 500,-613 506,-613 506,-613 573,-613 573,-613 579,-613 585,-619 585,-625 585,-625 585,-637 585,-637 585,-643 579,-649 573,-649"/>
<text text-anchor="middle" x="539.5" y="-627.3" font-family="Times,serif" font-size="14.00">Launching</text>
</g>
<!-- Perched&#45;&gt;Launching -->
<g id="edge1" class="edge">
<title>Perched&#45;&gt;Launching</title>
<path fill="none" stroke="#9c6b1f" d="M90.02,-661.55C174.11,-655.82 383.77,-641.54 483.77,-634.73"/>
<polygon fill="#9c6b1f" stroke="#9c6b1f" points="484.23,-638.2 493.96,-634.03 483.75,-631.22 484.23,-638.2"/>
<text text-anchor="middle" x="279.5" y="-662.8" font-family="Times,serif" font-size="14.00">RIDER_LAUNCHED</text>
</g>
<!-- Cruise -->
<g id="node3" class="node">
<title>Cruise</title>
<path fill="none" stroke="#d49b3a" d="M891.5,-601C891.5,-601 852.5,-601 852.5,-601 846.5,-601 840.5,-595 840.5,-589 840.5,-589 840.5,-577 840.5,-577 840.5,-571 846.5,-565 852.5,-565 852.5,-565 891.5,-565 891.5,-565 897.5,-565 903.5,-571 903.5,-577 903.5,-577 903.5,-589 903.5,-589 903.5,-595 897.5,-601 891.5,-601"/>
<text text-anchor="middle" x="872" y="-579.3" font-family="Times,serif" font-size="14.00">Cruise</text>
</g>
<!-- Launching&#45;&gt;Cruise -->
<g id="edge2" class="edge">
<title>Launching&#45;&gt;Cruise</title>
<path fill="none" stroke="#9c6b1f" d="M585.07,-624.53C649.53,-615.16 767.85,-597.98 830.16,-588.93"/>
<polygon fill="#9c6b1f" stroke="#9c6b1f" points="830.99,-592.35 840.39,-587.45 829.99,-585.42 830.99,-592.35"/>
<text text-anchor="middle" x="719.5" y="-621.8" font-family="Times,serif" font-size="14.00">AIRBORNE_CONFIRMED</text>
</g>
<!-- Climb -->
<g id="node4" class="node">
<title>Climb</title>
<path fill="none" stroke="#d49b3a" d="M1159.5,-631C1159.5,-631 1124.5,-631 1124.5,-631 1118.5,-631 1112.5,-625 1112.5,-619 1112.5,-619 1112.5,-607 1112.5,-607 1112.5,-601 1118.5,-595 1124.5,-595 1124.5,-595 1159.5,-595 1159.5,-595 1165.5,-595 1171.5,-601 1171.5,-607 1171.5,-607 1171.5,-619 1171.5,-619 1171.5,-625 1165.5,-631 1159.5,-631"/>
<text text-anchor="middle" x="1142" y="-609.3" font-family="Times,serif" font-size="14.00">Climb</text>
</g>
<!-- Cruise&#45;&gt;Climb -->
<g id="edge3" class="edge">
<title>Cruise&#45;&gt;Climb</title>
<path fill="none" stroke="#9c6b1f" d="M897.37,-601.16C907.78,-607.84 920.43,-614.6 933,-618 990.5,-633.55 1060.23,-626.99 1102.57,-620.35"/>
<polygon fill="#9c6b1f" stroke="#9c6b1f" points="1103.17,-623.8 1112.47,-618.72 1102.03,-616.9 1103.17,-623.8"/>
<text text-anchor="middle" x="1010" y="-630.8" font-family="Times,serif" font-size="14.00">FLAP_IMPULSE</text>
</g>
<!-- Dive -->
<g id="node5" class="node">
<title>Dive</title>
<path fill="none" stroke="#d49b3a" d="M1157,-468C1157,-468 1127,-468 1127,-468 1121,-468 1115,-462 1115,-456 1115,-456 1115,-444 1115,-444 1115,-438 1121,-432 1127,-432 1127,-432 1157,-432 1157,-432 1163,-432 1169,-438 1169,-444 1169,-444 1169,-456 1169,-456 1169,-462 1163,-468 1157,-468"/>
<text text-anchor="middle" x="1142" y="-446.3" font-family="Times,serif" font-size="14.00">Dive</text>
</g>
<!-- Cruise&#45;&gt;Dive -->
<g id="edge4" class="edge">
<title>Cruise&#45;&gt;Dive</title>
<path fill="none" stroke="#9c6b1f" d="M875.11,-564.98C879.68,-535.22 893.48,-476.58 933,-451 985.03,-417.32 1060.79,-428.35 1105.07,-439.28"/>
<polygon fill="#9c6b1f" stroke="#9c6b1f" points="1104.26,-442.69 1114.82,-441.81 1106.02,-435.91 1104.26,-442.69"/>
<text text-anchor="middle" x="1010" y="-454.8" font-family="Times,serif" font-size="14.00">DIVE_STARTED</text>
</g>
<!-- Stall -->
<g id="node6" class="node">
<title>Stall</title>
<path fill="none" stroke="#d49b3a" d="M1157,-560C1157,-560 1127,-560 1127,-560 1121,-560 1115,-554 1115,-548 1115,-548 1115,-536 1115,-536 1115,-530 1121,-524 1127,-524 1127,-524 1157,-524 1157,-524 1163,-524 1169,-530 1169,-536 1169,-536 1169,-548 1169,-548 1169,-554 1163,-560 1157,-560"/>
<text text-anchor="middle" x="1142" y="-538.3" font-family="Times,serif" font-size="14.00">Stall</text>
</g>
<!-- Cruise&#45;&gt;Stall -->
<g id="edge5" class="edge">
<title>Cruise&#45;&gt;Stall</title>
<path fill="none" stroke="#9c6b1f" d="M886.22,-564.82C897.08,-551.54 913.78,-534.58 933,-527 990.06,-504.51 1062.7,-518.35 1105.3,-530.29"/>
<polygon fill="#9c6b1f" stroke="#9c6b1f" points="1104.36,-533.67 1114.94,-533.11 1106.32,-526.95 1104.36,-533.67"/>
<text text-anchor="middle" x="1010" y="-530.8" font-family="Times,serif" font-size="14.00">STALL_STARTED</text>
</g>
<!-- Landing -->
<g id="node7" class="node">
<title>Landing</title>
<path fill="none" stroke="#d49b3a" d="M1167,-698C1167,-698 1117,-698 1117,-698 1111,-698 1105,-692 1105,-686 1105,-686 1105,-674 1105,-674 1105,-668 1111,-662 1117,-662 1117,-662 1167,-662 1167,-662 1173,-662 1179,-668 1179,-674 1179,-674 1179,-686 1179,-686 1179,-692 1173,-698 1167,-698"/>
<text text-anchor="middle" x="1142" y="-676.3" font-family="Times,serif" font-size="14.00">Landing</text>
</g>
<!-- Cruise&#45;&gt;Landing -->
<g id="edge9" class="edge">
<title>Cruise&#45;&gt;Landing</title>
<path fill="none" stroke="#9c6b1f" d="M885.04,-601.02C895.81,-615.61 912.97,-635.42 933,-646 960.3,-660.42 1041.99,-670.6 1094.5,-675.87"/>
<polygon fill="#9c6b1f" stroke="#9c6b1f" points="1094.29,-679.36 1104.59,-676.86 1094.98,-672.4 1094.29,-679.36"/>
<text text-anchor="middle" x="1010" y="-677.8" font-family="Times,serif" font-size="14.00">LAND_PRESSED</text>
</g>
<!-- Climb&#45;&gt;Cruise -->
<g id="edge6" class="edge">
<title>Climb&#45;&gt;Cruise</title>
<path fill="none" stroke="#9c6b1f" d="M1112.34,-604.55C1104.21,-602.43 1095.31,-600.38 1087,-599 1027.24,-589.1 957.06,-585.32 913.81,-583.88"/>
<polygon fill="#9c6b1f" stroke="#9c6b1f" points="913.78,-580.38 903.68,-583.57 913.57,-587.38 913.78,-580.38"/>
<text text-anchor="middle" x="1010" y="-602.8" font-family="Times,serif" font-size="14.00">FLAP_DECAYED</text>
</g>
<!-- Dive&#45;&gt;Cruise -->
<g id="edge7" class="edge">
<title>Dive&#45;&gt;Cruise</title>
<path fill="none" stroke="#9c6b1f" d="M1114.78,-458.35C1106,-460.99 1096.12,-463.8 1087,-466 1019.3,-482.36 991.29,-456.87 933,-495 910.66,-509.61 894.43,-535.73 884.53,-555.73"/>
<polygon fill="#9c6b1f" stroke="#9c6b1f" points="881.27,-554.44 880.18,-564.98 887.6,-557.42 881.27,-554.44"/>
<text text-anchor="middle" x="1010" y="-498.8" font-family="Times,serif" font-size="14.00">DIVE_RELEASED</text>
</g>
<!-- ContactCheck -->
<g id="node10" class="node">
<title>ContactCheck</title>
<path fill="none" stroke="#d49b3a" d="M1539,-333C1539,-333 1447,-333 1447,-333 1441,-333 1435,-327 1435,-321 1435,-321 1435,-309 1435,-309 1435,-303 1441,-297 1447,-297 1447,-297 1539,-297 1539,-297 1545,-297 1551,-303 1551,-309 1551,-309 1551,-321 1551,-321 1551,-327 1545,-333 1539,-333"/>
<text text-anchor="middle" x="1493" y="-311.3" font-family="Times,serif" font-size="14.00">ContactCheck</text>
</g>
<!-- Dive&#45;&gt;ContactCheck -->
<g id="edge39" class="edge">
<title>Dive&#45;&gt;ContactCheck</title>
<path fill="none" stroke="#9c6b1f" stroke-dasharray="5,2" d="M1169.03,-447.74C1219.52,-442.49 1333.15,-426.31 1417,-382 1436.8,-371.54 1455.58,-354.74 1469.4,-340.59"/>
<polygon fill="#9c6b1f" stroke="#9c6b1f" points="1472.2,-342.72 1476.54,-333.05 1467.12,-337.9 1472.2,-342.72"/>
<text text-anchor="middle" x="1307" y="-446.8" font-family="Times,serif" font-size="14.00">altitude/speed feed joust score</text>
</g>
<!-- Stall&#45;&gt;Cruise -->
<g id="edge8" class="edge">
<title>Stall&#45;&gt;Cruise</title>
<path fill="none" stroke="#9c6b1f" d="M1114.82,-543.37C1075.16,-545.78 997.62,-551.85 933,-565 926.64,-566.3 919.98,-567.97 913.5,-569.77"/>
<polygon fill="#9c6b1f" stroke="#9c6b1f" points="912.18,-566.51 903.56,-572.67 914.14,-573.23 912.18,-566.51"/>
<text text-anchor="middle" x="1010" y="-568.8" font-family="Times,serif" font-size="14.00">SPEED_RECOVERED</text>
</g>
<!-- Landing&#45;&gt;Perched -->
<g id="edge10" class="edge">
<title>Landing&#45;&gt;Perched</title>
<path fill="none" stroke="#9c6b1f" d="M1104.9,-689.93C1098.96,-691.21 1092.84,-692.31 1087,-693 1019.03,-701.07 1001.44,-693.62 933,-693 566.29,-689.67 471.34,-727.69 108,-678 105.35,-677.64 102.64,-677.19 99.92,-676.68"/>
<polygon fill="#9c6b1f" stroke="#9c6b1f" points="100.58,-673.24 90.07,-674.6 99.14,-680.09 100.58,-673.24"/>
<text text-anchor="middle" x="719.5" y="-701.8" font-family="Times,serif" font-size="14.00">RIDER_LANDED</text>
</g>
<!-- LanceIdle -->
<g id="node8" class="node">
<title>LanceIdle</title>
<path fill="none" stroke="#d49b3a" d="M903,-324C903,-324 841,-324 841,-324 835,-324 829,-318 829,-312 829,-312 829,-300 829,-300 829,-294 835,-288 841,-288 841,-288 903,-288 903,-288 909,-288 915,-294 915,-300 915,-300 915,-312 915,-312 915,-318 909,-324 903,-324"/>
<text text-anchor="middle" x="872" y="-302.3" font-family="Times,serif" font-size="14.00">LanceIdle</text>
</g>
<!-- Bracing -->
<g id="node9" class="node">
<title>Bracing</title>
<path fill="none" stroke="#d49b3a" d="M1166,-324C1166,-324 1118,-324 1118,-324 1112,-324 1106,-318 1106,-312 1106,-312 1106,-300 1106,-300 1106,-294 1112,-288 1118,-288 1118,-288 1166,-288 1166,-288 1172,-288 1178,-294 1178,-300 1178,-300 1178,-312 1178,-312 1178,-318 1172,-324 1166,-324"/>
<text text-anchor="middle" x="1142" y="-302.3" font-family="Times,serif" font-size="14.00">Bracing</text>
</g>
<!-- LanceIdle&#45;&gt;Bracing -->
<g id="edge11" class="edge">
<title>LanceIdle&#45;&gt;Bracing</title>
<path fill="none" stroke="#9c6b1f" d="M915.17,-306C964.3,-306 1045.16,-306 1095.62,-306"/>
<polygon fill="#9c6b1f" stroke="#9c6b1f" points="1095.91,-309.5 1105.91,-306 1095.91,-302.5 1095.91,-309.5"/>
<text text-anchor="middle" x="1010" y="-309.8" font-family="Times,serif" font-size="14.00">BRACE_PRESSED</text>
</g>
<!-- Bracing&#45;&gt;ContactCheck -->
<g id="edge12" class="edge">
<title>Bracing&#45;&gt;ContactCheck</title>
<path fill="none" stroke="#9c6b1f" d="M1178.03,-292.52C1184.26,-290.64 1190.76,-289.01 1197,-288 1293.52,-272.34 1320.68,-271.19 1417,-288 1424.67,-289.34 1432.59,-291.39 1440.28,-293.78"/>
<polygon fill="#9c6b1f" stroke="#9c6b1f" points="1439.27,-297.13 1449.86,-296.96 1441.47,-290.49 1439.27,-297.13"/>
<text text-anchor="middle" x="1307" y="-291.8" font-family="Times,serif" font-size="14.00">JOUST_CONTACT</text>
</g>
<!-- Bracing&#45;&gt;ContactCheck -->
<g id="edge40" class="edge">
<title>Bracing&#45;&gt;ContactCheck</title>
<path fill="none" stroke="#9c6b1f" stroke-dasharray="5,2" d="M1178.06,-306.9C1235.6,-308.39 1351,-311.36 1424.72,-313.26"/>
<polygon fill="#9c6b1f" stroke="#9c6b1f" points="1424.75,-316.77 1434.83,-313.53 1424.93,-309.77 1424.75,-316.77"/>
<text text-anchor="middle" x="1307" y="-316.8" font-family="Times,serif" font-size="14.00">brace_quality</text>
</g>
<!-- LanceRecovery -->
<g id="node11" class="node">
<title>LanceRecovery</title>
<path fill="none" stroke="#d49b3a" d="M1870,-284C1870,-284 1769,-284 1769,-284 1763,-284 1757,-278 1757,-272 1757,-272 1757,-260 1757,-260 1757,-254 1763,-248 1769,-248 1769,-248 1870,-248 1870,-248 1876,-248 1882,-254 1882,-260 1882,-260 1882,-272 1882,-272 1882,-278 1876,-284 1870,-284"/>
<text text-anchor="middle" x="1819.5" y="-262.3" font-family="Times,serif" font-size="14.00">LanceRecovery</text>
</g>
<!-- ContactCheck&#45;&gt;LanceRecovery -->
<g id="edge13" class="edge">
<title>ContactCheck&#45;&gt;LanceRecovery</title>
<path fill="none" stroke="#9c6b1f" d="M1551.28,-304.03C1557.26,-302.97 1563.25,-301.94 1569,-301 1628.77,-291.23 1696.87,-281.79 1746.81,-275.18"/>
<polygon fill="#9c6b1f" stroke="#9c6b1f" points="1747.41,-278.64 1756.86,-273.86 1746.49,-271.7 1747.41,-278.64"/>
<text text-anchor="middle" x="1654" y="-304.8" font-family="Times,serif" font-size="14.00">outcome resolved</text>
</g>
<!-- Broken -->
<g id="node12" class="node">
<title>Broken</title>
<path fill="none" stroke="#d49b3a" d="M1841.5,-355C1841.5,-355 1797.5,-355 1797.5,-355 1791.5,-355 1785.5,-349 1785.5,-343 1785.5,-343 1785.5,-331 1785.5,-331 1785.5,-325 1791.5,-319 1797.5,-319 1797.5,-319 1841.5,-319 1841.5,-319 1847.5,-319 1853.5,-325 1853.5,-331 1853.5,-331 1853.5,-343 1853.5,-343 1853.5,-349 1847.5,-355 1841.5,-355"/>
<text text-anchor="middle" x="1819.5" y="-333.3" font-family="Times,serif" font-size="14.00">Broken</text>
</g>
<!-- ContactCheck&#45;&gt;Broken -->
<g id="edge14" class="edge">
<title>ContactCheck&#45;&gt;Broken</title>
<path fill="none" stroke="#9c6b1f" d="M1551.27,-318.88C1615.16,-323.21 1717.11,-330.13 1774.86,-334.04"/>
<polygon fill="#9c6b1f" stroke="#9c6b1f" points="1774.9,-337.55 1785.11,-334.74 1775.37,-330.57 1774.9,-337.55"/>
<text text-anchor="middle" x="1654" y="-334.8" font-family="Times,serif" font-size="14.00">LANCE_BROKEN</text>
</g>
<!-- Alive -->
<g id="node22" class="node">
<title>Alive</title>
<path fill="none" stroke="#d49b3a" d="M1834.5,-135C1834.5,-135 1804.5,-135 1804.5,-135 1798.5,-135 1792.5,-129 1792.5,-123 1792.5,-123 1792.5,-111 1792.5,-111 1792.5,-105 1798.5,-99 1804.5,-99 1804.5,-99 1834.5,-99 1834.5,-99 1840.5,-99 1846.5,-105 1846.5,-111 1846.5,-111 1846.5,-123 1846.5,-123 1846.5,-129 1840.5,-135 1834.5,-135"/>
<text text-anchor="middle" x="1819.5" y="-113.3" font-family="Times,serif" font-size="14.00">Alive</text>
</g>
<!-- ContactCheck&#45;&gt;Alive -->
<g id="edge41" class="edge">
<title>ContactCheck&#45;&gt;Alive</title>
<path fill="none" stroke="#9c6b1f" stroke-dasharray="5,2" d="M1515.68,-296.86C1530.33,-284.95 1550.33,-269.36 1569,-257 1642.54,-208.32 1734.09,-159.82 1783.29,-134.67"/>
<polygon fill="#9c6b1f" stroke="#9c6b1f" points="1784.94,-137.76 1792.26,-130.1 1781.76,-131.52 1784.94,-137.76"/>
<text text-anchor="middle" x="1654" y="-260.8" font-family="Times,serif" font-size="14.00">emit JOUST_OUTCOME</text>
</g>
<!-- LanceRecovery&#45;&gt;LanceIdle -->
<g id="edge15" class="edge">
<title>LanceRecovery&#45;&gt;LanceIdle</title>
<path fill="none" stroke="#9c6b1f" d="M1756.64,-261.22C1644.76,-253.42 1401.43,-240.32 1197,-256 1100.31,-263.42 988.8,-283.11 925.03,-295.45"/>
<polygon fill="#9c6b1f" stroke="#9c6b1f" points="924.36,-292.02 915.22,-297.37 925.7,-298.89 924.36,-292.02"/>
<text text-anchor="middle" x="1307" y="-259.8" font-family="Times,serif" font-size="14.00">cooldown done</text>
</g>
<!-- Broken&#45;&gt;LanceIdle -->
<g id="edge16" class="edge">
<title>Broken&#45;&gt;LanceIdle</title>
<path fill="none" stroke="#9c6b1f" d="M1785.38,-343.65C1771.17,-346.18 1754.33,-348.75 1739,-350 1663.69,-356.12 1644.54,-351.38 1569,-350 1362.67,-346.22 1311.18,-341.57 1105,-333 1028.54,-329.82 1008.34,-338.44 933,-325 930.37,-324.53 927.69,-323.98 925,-323.36"/>
<polygon fill="#9c6b1f" stroke="#9c6b1f" points="925.82,-319.96 915.27,-320.88 924.1,-326.74 925.82,-319.96"/>
<text text-anchor="middle" x="1307" y="-349.8" font-family="Times,serif" font-size="14.00">RESUPPLY_COMPLETE</text>
</g>
<!-- Ready -->
<g id="node13" class="node">
<title>Ready</title>
<path fill="none" stroke="#d49b3a" d="M71.5,-885C71.5,-885 34.5,-885 34.5,-885 28.5,-885 22.5,-879 22.5,-873 22.5,-873 22.5,-861 22.5,-861 22.5,-855 28.5,-849 34.5,-849 34.5,-849 71.5,-849 71.5,-849 77.5,-849 83.5,-855 83.5,-861 83.5,-861 83.5,-873 83.5,-873 83.5,-879 77.5,-885 71.5,-885"/>
<text text-anchor="middle" x="53" y="-863.3" font-family="Times,serif" font-size="14.00">Ready</text>
</g>
<!-- BoltCooldown -->
<g id="node14" class="node">
<title>BoltCooldown</title>
<path fill="none" stroke="#d49b3a" d="M585.5,-814C585.5,-814 493.5,-814 493.5,-814 487.5,-814 481.5,-808 481.5,-802 481.5,-802 481.5,-790 481.5,-790 481.5,-784 487.5,-778 493.5,-778 493.5,-778 585.5,-778 585.5,-778 591.5,-778 597.5,-784 597.5,-790 597.5,-790 597.5,-802 597.5,-802 597.5,-808 591.5,-814 585.5,-814"/>
<text text-anchor="middle" x="539.5" y="-792.3" font-family="Times,serif" font-size="14.00">BoltCooldown</text>
</g>
<!-- Ready&#45;&gt;BoltCooldown -->
<g id="edge17" class="edge">
<title>Ready&#45;&gt;BoltCooldown</title>
<path fill="none" stroke="#9c6b1f" d="M58.46,-848.91C65.07,-826.5 79.82,-789.31 108,-773 173.97,-734.82 375.41,-763.23 451,-773 457.7,-773.87 464.62,-775.09 471.49,-776.53"/>
<polygon fill="#9c6b1f" stroke="#9c6b1f" points="470.97,-780 481.5,-778.77 472.5,-773.17 470.97,-780"/>
<text text-anchor="middle" x="279.5" y="-776.8" font-family="Times,serif" font-size="14.00">BOLT_PRESSED + guard can_spawn_ordnance</text>
</g>
<!-- BombReleased -->
<g id="node15" class="node">
<title>BombReleased</title>
<path fill="none" stroke="#d49b3a" d="M588.5,-879C588.5,-879 490.5,-879 490.5,-879 484.5,-879 478.5,-873 478.5,-867 478.5,-867 478.5,-855 478.5,-855 478.5,-849 484.5,-843 490.5,-843 490.5,-843 588.5,-843 588.5,-843 594.5,-843 600.5,-849 600.5,-855 600.5,-855 600.5,-867 600.5,-867 600.5,-873 594.5,-879 588.5,-879"/>
<text text-anchor="middle" x="539.5" y="-857.3" font-family="Times,serif" font-size="14.00">BombReleased</text>
</g>
<!-- Ready&#45;&gt;BombReleased -->
<g id="edge18" class="edge">
<title>Ready&#45;&gt;BombReleased</title>
<path fill="none" stroke="#9c6b1f" d="M83.56,-855.25C91.38,-852.67 99.9,-850.31 108,-849 258.48,-824.58 298.91,-838.62 451,-849 456.55,-849.38 462.27,-849.89 468.02,-850.49"/>
<polygon fill="#9c6b1f" stroke="#9c6b1f" points="468.03,-854.01 478.36,-851.66 468.82,-847.06 468.03,-854.01"/>
<text text-anchor="middle" x="279.5" y="-852.8" font-family="Times,serif" font-size="14.00">BOMB_PRESSED + guard can_spawn_ordnance</text>
</g>
<!-- Disabled -->
<g id="node16" class="node">
<title>Disabled</title>
<path fill="none" stroke="#d49b3a" d="M567,-959C567,-959 512,-959 512,-959 506,-959 500,-953 500,-947 500,-947 500,-935 500,-935 500,-929 506,-923 512,-923 512,-923 567,-923 567,-923 573,-923 579,-929 579,-935 579,-935 579,-947 579,-947 579,-953 573,-959 567,-959"/>
<text text-anchor="middle" x="539.5" y="-937.3" font-family="Times,serif" font-size="14.00">Disabled</text>
</g>
<!-- Ready&#45;&gt;Disabled -->
<g id="edge19" class="edge">
<title>Ready&#45;&gt;Disabled</title>
<path fill="none" stroke="#9c6b1f" d="M83.64,-878.77C91.46,-881.51 99.96,-884.15 108,-886 257.53,-920.35 299.23,-902.52 451,-925 463.66,-926.87 477.29,-929.21 489.93,-931.52"/>
<polygon fill="#9c6b1f" stroke="#9c6b1f" points="489.36,-934.97 499.83,-933.35 490.63,-928.09 489.36,-934.97"/>
<text text-anchor="middle" x="279.5" y="-928.8" font-family="Times,serif" font-size="14.00">joust&#45;only event</text>
</g>
<!-- BoltCooldown&#45;&gt;Ready -->
<g id="edge20" class="edge">
<title>BoltCooldown&#45;&gt;Ready</title>
<path fill="none" stroke="#9c6b1f" d="M481.26,-793.79C379.95,-790.67 173.6,-788.14 108,-816 95.08,-821.49 83.38,-831.54 74.2,-841.27"/>
<polygon fill="#9c6b1f" stroke="#9c6b1f" points="71.43,-839.12 67.4,-848.92 76.66,-843.77 71.43,-839.12"/>
<text text-anchor="middle" x="279.5" y="-819.8" font-family="Times,serif" font-size="14.00">cooldown done</text>
</g>
<!-- BombReleased&#45;&gt;Ready -->
<g id="edge21" class="edge">
<title>BombReleased&#45;&gt;Ready</title>
<path fill="none" stroke="#9c6b1f" d="M478.26,-863.28C469.13,-863.56 459.81,-863.82 451,-864 320.56,-866.73 165.98,-867.06 94.26,-867.05"/>
<polygon fill="#9c6b1f" stroke="#9c6b1f" points="93.89,-863.55 83.89,-867.05 93.88,-870.55 93.89,-863.55"/>
<text text-anchor="middle" x="279.5" y="-870.8" font-family="Times,serif" font-size="14.00">slot ready</text>
</g>
<!-- Disabled&#45;&gt;Ready -->
<g id="edge22" class="edge">
<title>Disabled&#45;&gt;Ready</title>
<path fill="none" stroke="#9c6b1f" d="M499.88,-951.83C421.16,-971.66 238.56,-1006.01 108,-940 89.18,-930.49 75.29,-910.99 66.31,-894.53"/>
<polygon fill="#9c6b1f" stroke="#9c6b1f" points="69.26,-892.61 61.59,-885.3 63.02,-895.79 69.26,-892.61"/>
<text text-anchor="middle" x="279.5" y="-981.8" font-family="Times,serif" font-size="14.00">EVENT_COMPLETED</text>
</g>
<!-- None -->
<g id="node17" class="node">
<title>None</title>
<path fill="none" stroke="#d49b3a" d="M68,-1200C68,-1200 38,-1200 38,-1200 32,-1200 26,-1194 26,-1188 26,-1188 26,-1176 26,-1176 26,-1170 32,-1164 38,-1164 38,-1164 68,-1164 68,-1164 74,-1164 80,-1170 80,-1176 80,-1176 80,-1188 80,-1188 80,-1194 74,-1200 68,-1200"/>
<text text-anchor="middle" x="53" y="-1178.3" font-family="Times,serif" font-size="14.00">None</text>
</g>
<!-- CaptureChannel -->
<g id="node18" class="node">
<title>CaptureChannel</title>
<path fill="none" stroke="#d49b3a" d="M594,-1091C594,-1091 485,-1091 485,-1091 479,-1091 473,-1085 473,-1079 473,-1079 473,-1067 473,-1067 473,-1061 479,-1055 485,-1055 485,-1055 594,-1055 594,-1055 600,-1055 606,-1061 606,-1067 606,-1067 606,-1079 606,-1079 606,-1085 600,-1091 594,-1091"/>
<text text-anchor="middle" x="539.5" y="-1069.3" font-family="Times,serif" font-size="14.00">CaptureChannel</text>
</g>
<!-- None&#45;&gt;CaptureChannel -->
<g id="edge23" class="edge">
<title>None&#45;&gt;CaptureChannel</title>
<path fill="none" stroke="#9c6b1f" d="M55.33,-1163.55C58.58,-1133.72 69.76,-1075.67 108,-1050 171.28,-1007.51 375.41,-1040.23 451,-1050 456.69,-1050.74 462.53,-1051.73 468.38,-1052.89"/>
<polygon fill="#9c6b1f" stroke="#9c6b1f" points="467.67,-1056.32 478.18,-1054.99 469.13,-1049.47 467.67,-1056.32"/>
<text text-anchor="middle" x="279.5" y="-1053.8" font-family="Times,serif" font-size="14.00">near outpost</text>
</g>
<!-- ResupplyChannel -->
<g id="node19" class="node">
<title>ResupplyChannel</title>
<path fill="none" stroke="#d49b3a" d="M598,-1156C598,-1156 481,-1156 481,-1156 475,-1156 469,-1150 469,-1144 469,-1144 469,-1132 469,-1132 469,-1126 475,-1120 481,-1120 481,-1120 598,-1120 598,-1120 604,-1120 610,-1126 610,-1132 610,-1132 610,-1144 610,-1144 610,-1150 604,-1156 598,-1156"/>
<text text-anchor="middle" x="539.5" y="-1134.3" font-family="Times,serif" font-size="14.00">ResupplyChannel</text>
</g>
<!-- None&#45;&gt;ResupplyChannel -->
<g id="edge24" class="edge">
<title>None&#45;&gt;ResupplyChannel</title>
<path fill="none" stroke="#9c6b1f" d="M65.49,-1163.86C75.05,-1150.61 89.98,-1133.66 108,-1126 178.15,-1096.19 374.95,-1120.81 451,-1126 453.54,-1126.17 456.13,-1126.38 458.73,-1126.6"/>
<polygon fill="#9c6b1f" stroke="#9c6b1f" points="458.57,-1130.1 468.86,-1127.58 459.24,-1123.13 458.57,-1130.1"/>
<text text-anchor="middle" x="279.5" y="-1129.8" font-family="Times,serif" font-size="14.00">near resupply</text>
</g>
<!-- ShrineChannel -->
<g id="node20" class="node">
<title>ShrineChannel</title>
<path fill="none" stroke="#d49b3a" d="M588.5,-1238C588.5,-1238 490.5,-1238 490.5,-1238 484.5,-1238 478.5,-1232 478.5,-1226 478.5,-1226 478.5,-1214 478.5,-1214 478.5,-1208 484.5,-1202 490.5,-1202 490.5,-1202 588.5,-1202 588.5,-1202 594.5,-1202 600.5,-1208 600.5,-1214 600.5,-1214 600.5,-1226 600.5,-1226 600.5,-1232 594.5,-1238 588.5,-1238"/>
<text text-anchor="middle" x="539.5" y="-1216.3" font-family="Times,serif" font-size="14.00">ShrineChannel</text>
</g>
<!-- None&#45;&gt;ShrineChannel -->
<g id="edge25" class="edge">
<title>None&#45;&gt;ShrineChannel</title>
<path fill="none" stroke="#9c6b1f" d="M80.13,-1181.94C143.82,-1182.1 312.03,-1184.31 451,-1202 456.72,-1202.73 462.62,-1203.62 468.53,-1204.62"/>
<polygon fill="#9c6b1f" stroke="#9c6b1f" points="467.99,-1208.08 478.45,-1206.39 469.22,-1201.19 467.99,-1208.08"/>
<text text-anchor="middle" x="279.5" y="-1205.8" font-family="Times,serif" font-size="14.00">near shrine</text>
</g>
<!-- HostageChannel -->
<g id="node21" class="node">
<title>HostageChannel</title>
<path fill="none" stroke="#d49b3a" d="M594.5,-1312C594.5,-1312 484.5,-1312 484.5,-1312 478.5,-1312 472.5,-1306 472.5,-1300 472.5,-1300 472.5,-1288 472.5,-1288 472.5,-1282 478.5,-1276 484.5,-1276 484.5,-1276 594.5,-1276 594.5,-1276 600.5,-1276 606.5,-1282 606.5,-1288 606.5,-1288 606.5,-1300 606.5,-1300 606.5,-1306 600.5,-1312 594.5,-1312"/>
<text text-anchor="middle" x="539.5" y="-1290.3" font-family="Times,serif" font-size="14.00">HostageChannel</text>
</g>
<!-- None&#45;&gt;HostageChannel -->
<g id="edge26" class="edge">
<title>None&#45;&gt;HostageChannel</title>
<path fill="none" stroke="#9c6b1f" d="M63.21,-1200.29C72.27,-1216.15 87.68,-1238.21 108,-1249 175.55,-1284.89 375.18,-1267.89 451,-1278 454.66,-1278.49 458.4,-1279.02 462.17,-1279.6"/>
<polygon fill="#9c6b1f" stroke="#9c6b1f" points="461.77,-1283.08 472.2,-1281.18 462.87,-1276.16 461.77,-1283.08"/>
<text text-anchor="middle" x="279.5" y="-1281.8" font-family="Times,serif" font-size="14.00">near hostage</text>
</g>
<!-- CaptureChannel&#45;&gt;None -->
<g id="edge27" class="edge">
<title>CaptureChannel&#45;&gt;None</title>
<path fill="none" stroke="#9c6b1f" d="M472.61,-1072.51C359.71,-1072.17 138.45,-1073.86 108,-1092 85.03,-1105.69 70.65,-1133.26 62.56,-1154.3"/>
<polygon fill="#9c6b1f" stroke="#9c6b1f" points="59.26,-1153.13 59.18,-1163.72 65.85,-1155.49 59.26,-1153.13"/>
<text text-anchor="middle" x="279.5" y="-1095.8" font-family="Times,serif" font-size="14.00">complete/interrupted</text>
</g>
<!-- ResupplyChannel&#45;&gt;None -->
<g id="edge28" class="edge">
<title>ResupplyChannel&#45;&gt;None</title>
<path fill="none" stroke="#9c6b1f" d="M468.56,-1140.99C355.63,-1145.97 142.27,-1156.12 108,-1163 102.07,-1164.19 95.91,-1165.89 89.96,-1167.79"/>
<polygon fill="#9c6b1f" stroke="#9c6b1f" points="88.56,-1164.57 80.23,-1171.11 90.82,-1171.19 88.56,-1164.57"/>
<text text-anchor="middle" x="279.5" y="-1166.8" font-family="Times,serif" font-size="14.00">complete/interrupted</text>
</g>
<!-- ShrineChannel&#45;&gt;None -->
<g id="edge29" class="edge">
<title>ShrineChannel&#45;&gt;None</title>
<path fill="none" stroke="#9c6b1f" d="M478.16,-1223.72C376.46,-1229.31 175.39,-1237.19 108,-1217 99.69,-1214.51 91.46,-1210.31 84.02,-1205.67"/>
<polygon fill="#9c6b1f" stroke="#9c6b1f" points="85.94,-1202.75 75.69,-1200.1 82.05,-1208.57 85.94,-1202.75"/>
<text text-anchor="middle" x="279.5" y="-1233.8" font-family="Times,serif" font-size="14.00">complete/interrupted</text>
</g>
<!-- HostageChannel&#45;&gt;None -->
<g id="edge30" class="edge">
<title>HostageChannel&#45;&gt;None</title>
<path fill="none" stroke="#9c6b1f" d="M479.91,-1312.01C391.75,-1335.37 223.08,-1365.18 108,-1293 79.15,-1274.91 65.31,-1236.51 58.96,-1209.98"/>
<polygon fill="#9c6b1f" stroke="#9c6b1f" points="62.36,-1209.15 56.81,-1200.12 55.52,-1210.64 62.36,-1209.15"/>
<text text-anchor="middle" x="279.5" y="-1341.8" font-family="Times,serif" font-size="14.00">complete/interrupted</text>
</g>
<!-- Stunned -->
<g id="node23" class="node">
<title>Stunned</title>
<path fill="none" stroke="#d49b3a" d="M2273,-52C2273,-52 2220,-52 2220,-52 2214,-52 2208,-46 2208,-40 2208,-40 2208,-28 2208,-28 2208,-22 2214,-16 2220,-16 2220,-16 2273,-16 2273,-16 2279,-16 2285,-22 2285,-28 2285,-28 2285,-40 2285,-40 2285,-46 2279,-52 2273,-52"/>
<text text-anchor="middle" x="2246.5" y="-30.3" font-family="Times,serif" font-size="14.00">Stunned</text>
</g>
<!-- Alive&#45;&gt;Stunned -->
<g id="edge31" class="edge">
<title>Alive&#45;&gt;Stunned</title>
<path fill="none" stroke="#9c6b1f" d="M1831.6,-98.85C1844.98,-78.9 1869.52,-47.95 1900,-35 1998.98,7.07 2128.79,-9.3 2197.69,-22.89"/>
<polygon fill="#9c6b1f" stroke="#9c6b1f" points="2197.31,-26.38 2207.81,-24.95 2198.71,-19.52 2197.31,-26.38"/>
<text text-anchor="middle" x="2014.5" y="-38.8" font-family="Times,serif" font-size="14.00">knockback</text>
</g>
<!-- Unhorsed -->
<g id="node24" class="node">
<title>Unhorsed</title>
<path fill="none" stroke="#d49b3a" d="M2277.5,-157C2277.5,-157 2215.5,-157 2215.5,-157 2209.5,-157 2203.5,-151 2203.5,-145 2203.5,-145 2203.5,-133 2203.5,-133 2203.5,-127 2209.5,-121 2215.5,-121 2215.5,-121 2277.5,-121 2277.5,-121 2283.5,-121 2289.5,-127 2289.5,-133 2289.5,-133 2289.5,-145 2289.5,-145 2289.5,-151 2283.5,-157 2277.5,-157"/>
<text text-anchor="middle" x="2246.5" y="-135.3" font-family="Times,serif" font-size="14.00">Unhorsed</text>
</g>
<!-- Alive&#45;&gt;Unhorsed -->
<g id="edge32" class="edge">
<title>Alive&#45;&gt;Unhorsed</title>
<path fill="none" stroke="#9c6b1f" d="M1846.81,-123.54C1862.21,-127.06 1882.08,-131.06 1900,-133 2003.53,-144.22 2125.52,-142.98 2193.33,-141.02"/>
<polygon fill="#9c6b1f" stroke="#9c6b1f" points="2193.44,-144.52 2203.33,-140.72 2193.23,-137.53 2193.44,-144.52"/>
<text text-anchor="middle" x="2014.5" y="-145.8" font-family="Times,serif" font-size="14.00">unhorse</text>
</g>
<!-- Dead -->
<g id="node25" class="node">
<title>Dead</title>
<path fill="none" stroke="#d49b3a" d="M2587,-142C2587,-142 2557,-142 2557,-142 2551,-142 2545,-136 2545,-130 2545,-130 2545,-118 2545,-118 2545,-112 2551,-106 2557,-106 2557,-106 2587,-106 2587,-106 2593,-106 2599,-112 2599,-118 2599,-118 2599,-130 2599,-130 2599,-136 2593,-142 2587,-142"/>
<text text-anchor="middle" x="2572" y="-120.3" font-family="Times,serif" font-size="14.00">Dead</text>
</g>
<!-- Alive&#45;&gt;Dead -->
<g id="edge33" class="edge">
<title>Alive&#45;&gt;Dead</title>
<path fill="none" stroke="#9c6b1f" d="M1846.52,-111.84C1861.99,-109 1882.04,-105.72 1900,-104 2097.35,-85.15 2148.08,-85.56 2346,-97 2412.91,-100.87 2490.39,-111.54 2534.76,-118.25"/>
<polygon fill="#9c6b1f" stroke="#9c6b1f" points="2534.35,-121.73 2544.77,-119.79 2535.41,-114.81 2534.35,-121.73"/>
<text text-anchor="middle" x="2246.5" y="-100.8" font-family="Times,serif" font-size="14.00">clean kill / mount destroyed</text>
</g>
<!-- Stunned&#45;&gt;Alive -->
<g id="edge34" class="edge">
<title>Stunned&#45;&gt;Alive</title>
<path fill="none" stroke="#9c6b1f" d="M2207.77,-39.54C2184.99,-42.79 2155.35,-46.87 2129,-50 2027.43,-62.07 1997.64,-42.5 1900,-73 1884.59,-77.82 1868.79,-85.82 1855.37,-93.68"/>
<polygon fill="#9c6b1f" stroke="#9c6b1f" points="1853.24,-90.89 1846.5,-99.07 1856.87,-96.87 1853.24,-90.89"/>
<text text-anchor="middle" x="2014.5" y="-76.8" font-family="Times,serif" font-size="14.00">STUN_DONE</text>
</g>
<!-- Unhorsed&#45;&gt;Alive -->
<g id="edge35" class="edge">
<title>Unhorsed&#45;&gt;Alive</title>
<path fill="none" stroke="#9c6b1f" d="M2203.24,-127.68C2181.28,-122.37 2153.89,-116.64 2129,-114 2030.97,-103.6 1914.44,-109.7 1856.68,-113.96"/>
<polygon fill="#9c6b1f" stroke="#9c6b1f" points="1856.3,-110.48 1846.6,-114.73 1856.84,-117.46 1856.3,-110.48"/>
<text text-anchor="middle" x="2014.5" y="-117.8" font-family="Times,serif" font-size="14.00">RECOVERY_MOUNT_REACHED</text>
</g>
<!-- Unhorsed&#45;&gt;Dead -->
<g id="edge36" class="edge">
<title>Unhorsed&#45;&gt;Dead</title>
<path fill="none" stroke="#9c6b1f" d="M2289.73,-132.74C2311.8,-129.77 2339.3,-126.54 2364,-125 2423.72,-121.28 2493.33,-121.98 2534.69,-122.92"/>
<polygon fill="#9c6b1f" stroke="#9c6b1f" points="2534.74,-126.42 2544.83,-123.17 2534.92,-119.42 2534.74,-126.42"/>
<text text-anchor="middle" x="2445.5" y="-128.8" font-family="Times,serif" font-size="14.00">GROUND_IMPACT</text>
</g>
<!-- Respawning -->
<g id="node26" class="node">
<title>Respawning</title>
<path fill="none" stroke="#d49b3a" d="M2911,-160C2911,-160 2831,-160 2831,-160 2825,-160 2819,-154 2819,-148 2819,-148 2819,-136 2819,-136 2819,-130 2825,-124 2831,-124 2831,-124 2911,-124 2911,-124 2917,-124 2923,-130 2923,-136 2923,-136 2923,-148 2923,-148 2923,-154 2917,-160 2911,-160"/>
<text text-anchor="middle" x="2871" y="-138.3" font-family="Times,serif" font-size="14.00">Respawning</text>
</g>
<!-- Dead&#45;&gt;Respawning -->
<g id="edge37" class="edge">
<title>Dead&#45;&gt;Respawning</title>
<path fill="none" stroke="#9c6b1f" d="M2599.1,-125.58C2645.65,-128.4 2744.19,-134.37 2808.71,-138.29"/>
<polygon fill="#9c6b1f" stroke="#9c6b1f" points="2808.56,-141.78 2818.76,-138.89 2808.99,-134.8 2808.56,-141.78"/>
<text text-anchor="middle" x="2709" y="-140.8" font-family="Times,serif" font-size="14.00">RESPAWN_TIMER_DONE</text>
</g>
<!-- Respawning&#45;&gt;Alive -->
<g id="edge38" class="edge">
<title>Respawning&#45;&gt;Alive</title>
<path fill="none" stroke="#9c6b1f" d="M2818.92,-153.42C2812.9,-154.45 2806.83,-155.35 2801,-156 2512.09,-188.22 2437.69,-168.94 2147,-166 2037.21,-164.89 2006.03,-189.53 1900,-161 1884.01,-156.7 1867.76,-148.52 1854.15,-140.37"/>
<polygon fill="#9c6b1f" stroke="#9c6b1f" points="1855.97,-137.38 1845.63,-135.06 1852.27,-143.32 1855.97,-137.38"/>
<text text-anchor="middle" x="2445.5" y="-177.8" font-family="Times,serif" font-size="14.00">PLAYER_RESPAWNED</text>
</g>
</g>
</svg>
